<svg width="160" height="35" viewBox="0 0 160 35" fill="none" xmlns="http://www.w3.org/2000/svg">
<path d="M42.6063 32.3761H40.8198C40.5691 32.3761 40.4124 32.5955 40.2243 33.0343C40.1303 33.379 40.0363 33.6611 40.0363 33.7551C40.0363 33.9432 40.1303 34.0999 40.287 34.1939C40.3497 34.2253 40.5064 34.288 40.7572 34.3193C40.9452 34.382 41.0079 34.4133 41.0079 34.5073C41.0079 34.57 40.9452 34.6014 40.8512 34.6327C40.9139 34.6327 40.7885 34.6014 40.5064 34.6014C40.4437 34.6014 40.287 34.6014 40.099 34.6014C39.9109 34.57 39.7542 34.57 39.6602 34.57C39.5662 34.57 39.4408 34.57 39.2528 34.6014C39.0647 34.6014 38.9393 34.6327 38.8453 34.6327C38.6573 34.6327 38.5632 34.6014 38.5632 34.5387C38.5632 34.476 38.6573 34.382 38.8453 34.288C39.0334 34.1939 39.1901 34.0372 39.2528 33.8492L41.7288 28.2703C41.8228 28.0823 41.8855 27.9569 41.9481 27.9569C41.9795 27.9569 42.0735 28.0509 42.1362 28.239L44.6122 33.8805C44.7062 34.0686 44.8316 34.1939 44.957 34.2566C44.9883 34.288 45.1137 34.3193 45.3017 34.3506C45.3958 34.382 45.4584 34.4133 45.4584 34.5073C45.4584 34.57 45.4271 34.6014 45.3644 34.6327C45.3331 34.6327 45.2704 34.6327 45.1137 34.6327C45.0196 34.6327 44.8629 34.6327 44.6122 34.6014C44.3615 34.57 44.1421 34.57 43.9227 34.57C43.766 34.57 43.6093 34.57 43.3585 34.6014C43.1391 34.6014 42.9824 34.6327 42.8884 34.6327C42.7004 34.6327 42.6063 34.6014 42.6063 34.5387C42.6063 34.4447 42.7004 34.382 42.9197 34.2566C43.1391 34.1626 43.2332 34.0059 43.2332 33.8178C43.2332 33.6611 43.1705 33.4731 43.0765 33.191C43.0138 33.0343 42.9197 32.8462 42.8571 32.6895C42.8884 32.5015 42.7317 32.3761 42.6063 32.3761ZM41.0392 31.8746H42.2929C42.481 31.8746 42.575 31.8746 42.575 31.812C42.575 31.7179 42.5436 31.6239 42.4496 31.4672L41.7288 29.8061C41.6661 29.7434 41.6661 29.7434 41.6347 29.7434C41.6034 29.7434 41.572 29.8061 41.5407 29.8374L40.8198 31.4672C40.7572 31.6239 40.7258 31.7493 40.7258 31.812C40.7572 31.8433 40.8825 31.8746 41.0392 31.8746Z" fill="#0E212F"/>
<path d="M49.5015 32.1567V33.8492C49.5015 34.0372 49.5329 34.1313 49.6582 34.2253C49.6896 34.2566 49.7836 34.288 49.9403 34.3506C50.0657 34.382 50.097 34.4133 50.097 34.5074C50.097 34.6014 50.0657 34.6327 49.9717 34.6327C49.9403 34.6327 49.8463 34.6327 49.6582 34.6014C49.4702 34.57 49.3448 34.57 49.1568 34.57C48.9687 34.57 48.7807 34.57 48.5926 34.6014C48.4359 34.6014 48.3419 34.6327 48.3105 34.6327C48.1852 34.6327 48.1538 34.6014 48.1538 34.5074C48.1538 34.476 48.1852 34.382 48.3105 34.3193C48.4359 34.2253 48.4986 34.0999 48.4986 33.9119V32.2821C48.4986 31.8746 48.4672 31.5926 48.3105 31.4359C48.2165 31.3105 48.0285 31.2478 47.8091 31.2478C47.5897 31.2478 47.4016 31.3105 47.2763 31.4672C47.1822 31.5926 47.1509 31.6866 47.1509 31.812V33.9119C47.1509 34.0999 47.1822 34.1939 47.2763 34.288C47.3076 34.3193 47.4016 34.3193 47.5897 34.4133C47.715 34.4447 47.7464 34.5074 47.7464 34.57C47.7464 34.6641 47.6524 34.6954 47.433 34.6954C47.3389 34.6954 47.1822 34.6954 46.9942 34.6641C46.8061 34.6327 46.6494 34.6327 46.5867 34.6327C46.4927 34.6327 46.3987 34.6327 46.242 34.6641C46.0853 34.6641 45.9912 34.6954 45.9286 34.6954C45.8345 34.6954 45.7719 34.6954 45.7719 34.6954C45.7405 34.6954 45.7092 34.6327 45.7092 34.57C45.7092 34.476 45.7719 34.4447 45.9286 34.382C46.0853 34.3193 46.148 34.2253 46.148 34.0686V31.7179C46.148 31.5612 46.0539 31.4359 45.8659 31.4045C45.6778 31.3732 45.5838 31.3418 45.5838 31.2478C45.5838 31.1851 45.6465 31.1538 45.7092 31.1224C45.7405 31.0911 45.8659 31.0911 46.0539 31.0284C46.3673 30.9344 46.6181 30.8717 46.8061 30.7777C46.9628 30.6523 47.0569 30.621 47.0569 30.621C47.1195 30.621 47.1822 30.6837 47.1822 30.809V31.2792C47.527 30.903 47.9344 30.6837 48.3419 30.6837C48.7807 30.6837 49.1254 30.903 49.4388 31.3418C49.7523 30.903 50.1597 30.6837 50.6612 30.6837C51.1626 30.6837 51.5074 30.8404 51.6955 31.1538C51.8522 31.4045 51.9148 31.812 51.9148 32.3448V33.9119C51.9148 34.1313 52.0089 34.2566 52.1969 34.3193C52.385 34.4133 52.479 34.4447 52.479 34.5387C52.479 34.6327 52.385 34.6954 52.1969 34.6954C52.1342 34.6954 52.0402 34.6954 51.9462 34.6641C51.8208 34.6327 51.7268 34.6327 51.6641 34.6327C51.5387 34.6327 51.3507 34.6327 51.1626 34.6641C50.9433 34.6641 50.8179 34.6954 50.7865 34.6954C50.6612 34.6954 50.5985 34.6327 50.5985 34.57C50.5985 34.5074 50.6612 34.4447 50.7552 34.382C50.8806 34.3193 50.9433 34.2253 50.9433 34.1313V32.4701C50.9433 32.094 50.9119 31.812 50.8492 31.6553C50.7552 31.4045 50.5358 31.2478 50.2224 31.2478C49.7209 31.1851 49.5015 31.4985 49.5015 32.1567Z" fill="#0E212F"/>
<path d="M56.052 32.4075H53.8267C53.7327 32.4075 53.6386 32.4075 53.6386 32.4388C53.6386 32.4388 53.6073 32.5328 53.6073 32.6582C53.6073 33.0656 53.764 33.4104 54.0147 33.7238C54.2655 34.0059 54.5789 34.1626 54.9863 34.1626C55.1744 34.1626 55.4251 34.0686 55.6759 33.9119C55.9579 33.7552 56.052 33.6611 56.0833 33.6611C56.1773 33.6611 56.1773 33.6925 56.1773 33.7552C56.1773 33.9119 56.0206 34.0999 55.6759 34.3193C55.2684 34.6014 54.8923 34.7267 54.4849 34.7267C53.9834 34.7267 53.576 34.57 53.2312 34.288C52.8551 33.9432 52.6671 33.4731 52.6671 32.9089C52.6671 32.3134 52.8238 31.812 53.1058 31.3732C53.4193 30.903 53.8894 30.6837 54.4535 30.6837C54.9863 30.6837 55.4251 30.903 55.7699 31.2791C56.052 31.5926 56.1773 31.906 56.1773 32.2507C56.1773 32.3134 56.1773 32.4075 56.052 32.4075ZM53.67 32.0627H54.9863C55.0804 32.0627 55.1431 32.0627 55.1744 32.0314C55.2057 32 55.2057 31.906 55.2057 31.812C55.2057 31.5926 55.1431 31.4045 54.9863 31.2165C54.8296 31.0284 54.6102 30.903 54.3595 30.903C54.1088 30.903 53.9207 31.0284 53.764 31.2165C53.67 31.3732 53.576 31.6239 53.576 31.8433C53.6073 32 53.6386 32.0627 53.67 32.0627Z" fill="#0E212F"/>
<path d="M58.0892 32.4075V33.6298C58.0892 33.8805 58.1519 34.0686 58.2772 34.1626C58.3713 34.2253 58.4966 34.288 58.6847 34.3193C58.8101 34.382 58.8727 34.4133 58.8727 34.476C58.8727 34.57 58.8414 34.6327 58.716 34.6327C58.6533 34.6327 58.4966 34.6327 58.2459 34.6014C57.9952 34.57 57.8071 34.57 57.7131 34.57C57.5564 34.57 57.3683 34.57 57.1803 34.6014C56.9922 34.6014 56.8355 34.6327 56.8042 34.6327C56.7101 34.6327 56.6475 34.6014 56.6475 34.57C56.6475 34.476 56.6788 34.4133 56.7728 34.382C56.8982 34.3193 56.9609 34.2566 56.9922 34.2566C57.0549 34.1626 57.0862 34.0059 57.0862 33.8178V31.6553C57.0862 31.4985 56.9922 31.3732 56.8042 31.3418C56.6161 31.3105 56.5221 31.2792 56.5221 31.1851C56.5221 31.1224 56.5534 31.0911 56.6161 31.0598C56.6788 31.0284 56.7728 31.0284 56.9922 30.9657C57.3056 30.8717 57.5564 30.809 57.7444 30.715C57.9011 30.5896 57.9952 30.5583 57.9952 30.5583C58.0578 30.5583 58.1205 30.621 58.1205 30.7463V31.4672C58.5593 30.903 58.9041 30.621 59.0608 30.621C59.1548 30.621 59.3429 30.715 59.4996 30.8717C59.6876 31.0284 59.7816 31.1224 59.7816 31.2165C59.7816 31.4045 59.719 31.5612 59.6249 31.7179C59.5309 31.906 59.4055 32 59.3429 32C59.3115 32 59.2175 31.9373 59.0921 31.812C58.9668 31.6866 58.8101 31.6239 58.622 31.6239C58.2146 31.6553 58.0892 31.906 58.0892 32.4075Z" fill="#0E212F"/>
<path d="M60.4712 34.0372V31.6866C60.4712 31.5299 60.3771 31.4045 60.1577 31.3732C59.9697 31.3418 59.8757 31.3105 59.8757 31.2478C59.8757 31.1538 59.9384 31.1224 60.001 31.0911C60.0324 31.0911 60.1577 31.0597 60.3771 30.9971C60.6906 30.903 60.9413 30.8404 61.098 30.7463C61.2547 30.621 61.3487 30.5896 61.3487 30.5896C61.4428 30.5896 61.4741 30.6523 61.4741 30.7777V33.8805C61.4741 34.0686 61.5368 34.1626 61.6622 34.2566C61.6622 34.288 61.7875 34.288 61.9756 34.382C62.0696 34.4133 62.1636 34.476 62.1636 34.5387C62.1636 34.6327 62.0069 34.6641 61.7875 34.6641C61.6935 34.6641 61.5368 34.6641 61.3487 34.6327C61.1607 34.6014 61.004 34.6014 60.9099 34.6014C60.8159 34.6014 60.7219 34.6014 60.5652 34.6327C60.4085 34.6327 60.3145 34.6641 60.2204 34.6641C60.1264 34.6641 60.0324 34.6641 60.0324 34.6641C60.001 34.6641 59.9697 34.6014 59.9697 34.5387C59.9697 34.4447 60.0637 34.4133 60.2204 34.3506C60.3771 34.288 60.4712 34.1626 60.4712 34.0372ZM61.5995 29.1792C61.5995 29.2733 61.5054 29.3986 61.3487 29.5867C61.1607 29.8061 61.0353 29.9001 60.9726 29.9001C60.91 29.9001 60.7846 29.8061 60.5965 29.5867C60.4398 29.3986 60.3458 29.2733 60.3458 29.1792C60.3458 29.1166 60.4398 28.9598 60.5965 28.7718C60.7846 28.5837 60.8786 28.4584 60.9726 28.4584C61.0353 28.4584 61.1607 28.5837 61.3487 28.7718C61.4741 28.9598 61.5995 29.0852 61.5995 29.1792Z" fill="#0E212F"/>
<path d="M62.3203 32.8776C62.3203 32.2507 62.5397 31.7179 62.9471 31.3105C63.3546 30.8717 63.8874 30.6523 64.4829 30.6523C64.7023 30.6523 64.953 30.715 65.2038 30.809C65.4858 30.9344 65.6425 31.1224 65.6425 31.3418C65.6425 31.4045 65.5485 31.5299 65.3605 31.6866C65.1724 31.8433 65.0471 31.906 64.953 31.906C64.8903 31.906 64.859 31.8746 64.859 31.7806C64.765 31.5299 64.7023 31.3418 64.6083 31.2165C64.4829 31.0598 64.3262 30.9971 64.0755 30.9971C63.5113 30.9971 63.2292 31.4045 63.2292 32.2194C63.2292 32.6895 63.3546 33.1283 63.574 33.5044C63.8561 33.9119 64.1695 34.1313 64.5769 34.1313C64.7963 34.1313 65.0157 34.0372 65.2978 33.8805C65.5799 33.7238 65.7052 33.6298 65.7366 33.6298C65.7993 33.6298 65.7993 33.6611 65.7993 33.7238C65.7993 33.8805 65.6112 34.0686 65.2978 34.288C64.9217 34.57 64.5142 34.6954 64.0755 34.6954C63.574 34.6954 63.1352 34.5074 62.8218 34.1626C62.477 33.8178 62.3203 33.4104 62.3203 32.8776Z" fill="#0E212F"/>
<path d="M69.3095 32V33.5984C69.3095 33.8492 69.3095 34.0059 69.3409 34.0686C69.3722 34.1313 69.4349 34.1626 69.5603 34.1626C69.623 34.1626 69.6543 34.1626 69.717 34.1313C69.811 34.1313 69.8423 34.1313 69.8737 34.1313C69.9364 34.1313 69.9677 34.1313 69.9677 34.2253C69.9677 34.3193 69.8423 34.4133 69.6543 34.5387C69.4349 34.6641 69.2469 34.7268 69.0901 34.7268C68.7767 34.7268 68.5887 34.5387 68.4947 34.1626C68.0245 34.5387 67.5544 34.7268 67.0843 34.7268C66.8335 34.7268 66.6141 34.6641 66.4261 34.476C66.2694 34.3193 66.1754 34.1313 66.1754 33.8805C66.1754 33.3791 66.4261 33.003 66.8962 32.7836C67.0529 32.6895 67.5544 32.5328 68.3379 32.3448C68.3379 31.906 68.3066 31.5612 68.2126 31.3732C68.0872 31.1224 67.8678 30.9971 67.5231 30.9971C67.335 30.9971 67.2096 31.0598 67.1783 31.1538C67.1469 31.2165 67.1156 31.3418 67.1156 31.5299C67.1156 31.812 66.8962 31.9687 66.4574 31.9687C66.3007 31.9687 66.238 31.906 66.238 31.7806C66.238 31.4045 66.4574 31.1538 66.8335 30.9657C67.147 30.809 67.4917 30.715 67.8992 30.715C68.8394 30.6523 69.3095 31.1224 69.3095 32ZM68.3066 33.8492V32.9716C68.3066 32.7836 68.3066 32.6895 68.3066 32.6895C68.3066 32.6582 68.2753 32.6268 68.2439 32.6268C68.0245 32.6268 67.8051 32.6895 67.5857 32.8462C67.3037 33.0343 67.1783 33.285 67.1783 33.5358C67.1783 33.9432 67.335 34.1626 67.6484 34.1626C67.8051 34.1626 67.9305 34.1313 68.0559 34.0999C68.2126 34.0372 68.3066 33.9432 68.3066 33.8492Z" fill="#0E212F"/>
<path d="M70.5632 33.7865V31.6866C70.5632 31.5299 70.4692 31.4045 70.2811 31.3732C70.0617 31.3418 69.9677 31.3105 69.9677 31.2165C69.9677 31.1538 69.9991 31.1224 70.0617 31.0911C70.0931 31.0598 70.2498 31.0598 70.4065 30.9971C70.7199 30.903 70.9706 30.8404 71.19 30.7463C71.3468 30.621 71.4408 30.5896 71.4408 30.5896C71.5035 30.5896 71.5348 30.6523 71.5348 30.7777V31.3105H71.5661C71.8169 30.8717 72.2243 30.6523 72.7885 30.6523C73.2586 30.6523 73.6034 30.8404 73.8854 31.1851C74.1048 31.4985 74.1989 31.8746 74.1989 32.3761V33.8492C74.1989 34.0059 74.2615 34.1313 74.3556 34.2566C74.3869 34.288 74.4809 34.3506 74.6063 34.382C74.7317 34.4133 74.763 34.476 74.763 34.5074C74.763 34.57 74.7003 34.6327 74.5436 34.6327C74.4496 34.6327 74.2929 34.6327 74.1048 34.6014C73.9481 34.57 73.8228 34.57 73.7601 34.57C73.666 34.57 73.5093 34.57 73.384 34.6014C73.1959 34.6014 73.1019 34.6327 73.0706 34.6327C72.9138 34.6327 72.8512 34.6327 72.8512 34.6327C72.7885 34.6327 72.7885 34.57 72.7885 34.5074C72.7885 34.476 72.8512 34.382 73.0079 34.288C73.1646 34.1939 73.2273 34.0999 73.2273 33.9432V32.3761C73.2273 31.6239 72.9452 31.2478 72.3183 31.2478C71.8169 31.2478 71.5661 31.5299 71.5661 32.1254V33.8492C71.5661 34.0059 71.6288 34.0999 71.7542 34.1939C71.8169 34.2253 71.9109 34.2566 72.099 34.3506C72.2243 34.382 72.287 34.4447 72.287 34.5074C72.287 34.57 72.193 34.6327 72.0049 34.6327C71.5975 34.6014 71.3154 34.57 71.096 34.57C71.002 34.57 70.8139 34.57 70.6259 34.6014C70.4065 34.6014 70.2811 34.6327 70.1871 34.6327C70.0931 34.6327 70.0617 34.6014 70.0617 34.5387C70.0617 34.476 70.0931 34.382 70.2184 34.382C70.3125 34.3193 70.4065 34.2566 70.4378 34.2566C70.5319 34.1313 70.5632 33.9745 70.5632 33.7865Z" fill="#0E212F"/>
<path d="M81.9403 28.7405V30.2762C81.9403 30.4016 81.8463 30.4643 81.7209 30.4643C81.6896 30.4643 81.6269 30.2762 81.4702 29.9314C81.3135 29.524 81.0941 29.2106 80.812 28.9912C80.3732 28.6464 79.8091 28.4584 79.0882 28.4584C78.5554 28.4584 78.1166 28.6464 77.7405 29.0225C77.2704 29.524 77.0197 30.2762 77.0197 31.3418C77.0197 32.0627 77.2077 32.6895 77.5211 33.285C77.9286 33.9432 78.4614 34.2566 79.1509 34.2566C79.8718 34.2566 80.3732 34.0999 80.624 33.8178C80.7807 33.6298 80.8434 33.3164 80.8434 32.9403C80.8434 32.5328 80.7493 32.2507 80.5613 32.094C80.4673 32 80.2792 31.9373 80.0598 31.906C79.8718 31.906 79.7777 31.8433 79.7777 31.7806C79.7777 31.6552 79.8404 31.5926 79.9658 31.5926C79.9345 31.5926 80.0598 31.5926 80.2479 31.5926C80.3732 31.5926 80.5926 31.5926 80.9061 31.5926C81.1881 31.5926 81.3762 31.6239 81.5329 31.6239C81.6583 31.6239 81.815 31.6239 82.0344 31.5926C82.2537 31.5926 82.4105 31.5926 82.5045 31.5926C82.5672 31.5926 82.5985 31.6239 82.5985 31.6866C82.5985 31.7806 82.5358 31.8433 82.4418 31.8746C82.3164 31.906 82.1911 31.9687 82.1284 32.0627C82.0344 32.1881 81.9717 32.4388 81.9717 32.7835C81.9717 32.9403 81.9717 33.097 82.003 33.2537C82.003 33.4104 82.003 33.5044 82.003 33.5358C82.003 33.6925 81.9717 33.7238 81.909 33.7865C80.812 34.382 79.8404 34.6641 78.9942 34.6641C77.8346 34.6641 76.9883 34.2253 76.4555 33.4104C76.0794 32.8462 75.8914 32.2507 75.8914 31.5926C75.8914 30.6836 76.1421 29.9001 76.6436 29.2106C77.2704 28.3957 78.0853 28.0196 79.1509 28.0196C79.527 28.0196 79.9031 28.0509 80.2479 28.1763C80.4673 28.2703 80.718 28.3644 81.0001 28.4897C81.2508 28.5837 81.3762 28.6464 81.4389 28.6464C81.5015 28.6464 81.5642 28.6151 81.6269 28.4897C81.6896 28.3957 81.7523 28.3644 81.7836 28.3644C81.909 28.3957 81.9403 28.5211 81.9403 28.7405Z" fill="#0E212F"/>
<path d="M84.385 32.4075V33.6298C84.385 33.8805 84.4476 34.0686 84.573 34.1626C84.667 34.2253 84.7924 34.288 84.9805 34.3193C85.1058 34.382 85.1998 34.4133 85.1998 34.476C85.1998 34.57 85.1372 34.6327 85.0745 34.6327C85.0118 34.6327 84.8551 34.6327 84.573 34.6014C84.3223 34.57 84.1342 34.57 84.0089 34.57C83.8208 34.57 83.6641 34.57 83.4447 34.6014C83.2567 34.6014 83.1313 34.6327 83.0686 34.6327C82.9746 34.6327 82.9119 34.6014 82.9119 34.57C82.9119 34.476 82.9746 34.4133 83.0059 34.382C83.1313 34.3193 83.2253 34.2566 83.2253 34.2566C83.288 34.1626 83.3507 34.0059 83.3507 33.8178V31.6553C83.3507 31.4985 83.2567 31.3732 83.0686 31.3418C82.8492 31.3105 82.7552 31.2792 82.7552 31.1851C82.7552 31.1224 82.7865 31.0911 82.8492 31.0598C82.8806 31.0284 83.0373 31.0284 83.2253 30.9657C83.5387 30.8717 83.7895 30.809 83.9775 30.715C84.1342 30.5896 84.2282 30.5583 84.2282 30.5583C84.2909 30.5583 84.3536 30.621 84.3536 30.7463V31.4672C84.7924 30.903 85.1058 30.621 85.2939 30.621C85.4192 30.621 85.576 30.715 85.7327 30.8717C85.9207 31.0284 86.0147 31.1224 86.0147 31.2165C86.0147 31.4045 85.952 31.5612 85.8267 31.7179C85.7013 31.906 85.6073 32 85.5446 32C85.5133 32 85.4192 31.9373 85.2939 31.812C85.1685 31.6866 85.0118 31.6239 84.8237 31.6239C84.5417 31.6553 84.385 31.906 84.385 32.4075Z" fill="#0E212F"/>
<path d="M86.7669 34.0372V31.6866C86.7669 31.5299 86.6729 31.4045 86.4849 31.3732C86.2655 31.3418 86.1714 31.3105 86.1714 31.2478C86.1714 31.1538 86.2028 31.1224 86.2968 31.0911C86.3282 31.0911 86.4535 31.0597 86.6416 30.9971C86.955 30.903 87.2057 30.8404 87.3938 30.7463C87.5505 30.621 87.6445 30.5896 87.6445 30.5896C87.7385 30.5896 87.7699 30.6523 87.7699 30.7777V33.8805C87.7699 34.0686 87.8012 34.1626 87.9266 34.2566C87.9579 34.288 88.052 34.288 88.24 34.382C88.3654 34.4133 88.4281 34.476 88.4281 34.5387C88.4281 34.6327 88.3027 34.6641 88.052 34.6641C87.9579 34.6641 87.8012 34.6641 87.6132 34.6327C87.3938 34.6014 87.2684 34.6014 87.1744 34.6014C87.0804 34.6014 86.9863 34.6014 86.8296 34.6327C86.6729 34.6327 86.5475 34.6641 86.4849 34.6641C86.3595 34.6641 86.2968 34.6641 86.2968 34.6641C86.2341 34.6641 86.2028 34.6014 86.2028 34.5387C86.2028 34.4447 86.2968 34.4133 86.4849 34.3506C86.7043 34.288 86.7669 34.1626 86.7669 34.0372ZM87.8952 29.1792C87.8952 29.2733 87.8012 29.3986 87.6445 29.5867C87.4878 29.8061 87.3624 29.9001 87.2684 29.9001C87.1744 29.9001 87.0804 29.8061 86.9236 29.5867C86.7356 29.3986 86.6729 29.2733 86.6729 29.1792C86.6729 29.1166 86.7356 28.9598 86.9236 28.7718C87.0804 28.5837 87.2057 28.4584 87.2684 28.4584C87.3311 28.4584 87.4565 28.5837 87.6445 28.7718C87.8012 28.9598 87.8952 29.0852 87.8952 29.1792Z" fill="#0E212F"/>
<path d="M89.1176 33.7865V28.9912C89.1176 28.8345 89.0549 28.7405 88.9609 28.6778C88.8982 28.6464 88.8042 28.6464 88.6475 28.5837C88.5221 28.5837 88.4908 28.5524 88.4908 28.4584C88.4908 28.3957 88.5221 28.3644 88.6161 28.333C88.8042 28.2703 89.0236 28.2076 89.2116 28.1763C89.4937 28.0823 89.6817 27.9883 89.8385 27.8942C89.9638 27.8315 90.0265 27.8002 90.0578 27.8002C90.1205 27.8002 90.1205 27.8315 90.1205 27.9256C90.1205 27.9256 90.1205 28.0196 90.1205 28.1763C90.1205 28.333 90.1205 28.4584 90.1205 28.5837V33.8492C90.1205 34.0372 90.1519 34.1626 90.2772 34.288C90.3086 34.3193 90.434 34.382 90.5907 34.4447C90.716 34.476 90.7787 34.5387 90.7787 34.57C90.7787 34.6641 90.716 34.6954 90.5907 34.6954C90.528 34.6954 90.3399 34.6954 90.0892 34.6641C89.8385 34.6327 89.6504 34.6327 89.5564 34.6327C89.4937 34.6327 89.337 34.6327 89.1176 34.6641C88.8982 34.6641 88.7728 34.6954 88.7101 34.6954C88.6161 34.6954 88.5534 34.6641 88.5534 34.6327C88.5534 34.5387 88.5848 34.5074 88.6788 34.476C88.8042 34.476 88.8982 34.4133 88.9609 34.3506C89.0549 34.1939 89.1176 34.0372 89.1176 33.7865Z" fill="#0E212F"/>
<path d="M91.4682 33.7865V28.9912C91.4682 28.8345 91.4369 28.7405 91.3115 28.6778C91.2802 28.6464 91.1862 28.6464 91.0295 28.5837C90.9354 28.5837 90.8727 28.5524 90.8727 28.4584C90.8727 28.3957 90.9041 28.3644 90.9981 28.333C91.1862 28.2703 91.4055 28.2076 91.5936 28.1763C91.8757 28.0823 92.0637 27.9883 92.2204 27.8942C92.3145 27.8315 92.3771 27.8002 92.4398 27.8002C92.4712 27.8002 92.5025 27.8315 92.5025 27.9256C92.5025 27.9256 92.5025 28.0196 92.5025 28.1763C92.4712 28.333 92.4712 28.4584 92.4712 28.5837V33.8492C92.4712 34.0372 92.5339 34.1626 92.6592 34.288C92.7219 34.3193 92.8159 34.382 92.9726 34.4447C93.0667 34.476 93.1607 34.5387 93.1607 34.57C93.1607 34.6641 93.098 34.6954 92.9726 34.6954C92.91 34.6954 92.7533 34.6954 92.5025 34.6641C92.2204 34.6327 92.0324 34.6327 91.9384 34.6327C91.8757 34.6327 91.719 34.6327 91.5309 34.6641C91.3429 34.6641 91.1862 34.6954 91.1548 34.6954C91.0608 34.6954 90.9981 34.6641 90.9981 34.6327C90.9981 34.5387 91.0608 34.5074 91.1548 34.476C91.2802 34.476 91.3742 34.4133 91.4369 34.3506C91.4369 34.1939 91.4682 34.0372 91.4682 33.7865Z" fill="#0E212F"/>
<path d="M94.6651 32.5015C94.6651 32 94.7905 31.5926 95.0099 31.2478C95.1979 30.9971 95.386 30.7777 95.6994 30.621L96.0755 30.4016C96.0755 30.3702 96.0441 30.2449 95.9815 30.0882C95.9501 29.9001 95.8874 29.712 95.8874 29.4927C95.8874 29.0539 96.0441 28.7091 96.3262 28.427C96.6083 28.1763 96.9844 28.0509 97.4232 28.0509C97.6426 28.0509 97.9246 28.0823 98.2381 28.239C98.5828 28.333 98.7395 28.3957 98.7395 28.3957C98.7709 28.3957 98.8336 28.3644 98.8649 28.3017C98.9589 28.2703 98.9589 28.2703 99.053 28.2703C99.1156 28.2703 99.147 28.3017 99.147 28.427C99.147 28.6464 99.2097 29.0852 99.2723 29.8374C99.2723 29.9628 99.241 30.0255 99.147 30.0255C99.0843 30.0255 99.0216 29.9314 98.9589 29.7747C98.8336 29.3673 98.6455 29.0539 98.3948 28.8031C98.1127 28.5211 97.7993 28.3644 97.4232 28.3644C96.9844 28.3644 96.765 28.6151 96.765 29.0539C96.765 29.43 97.0471 29.9941 97.5799 30.621C98.0187 31.1538 98.4888 31.6866 99.1156 32.2194C99.6484 32.6895 99.9932 32.9403 100.087 32.9403C100.119 32.9403 100.181 32.8462 100.275 32.6582C100.369 32.4388 100.432 32.2194 100.432 32C100.432 31.6552 100.338 31.4359 100.15 31.2791C100.056 31.2165 99.8992 31.1538 99.6484 31.1224C99.4604 31.0911 99.3664 31.0284 99.3664 30.9657C99.3664 30.8717 99.4291 30.8404 99.5544 30.8404C99.5544 30.8404 99.6798 30.8404 99.8678 30.8717C100.056 30.8717 100.275 30.8717 100.495 30.8717C100.683 30.8717 100.871 30.8717 100.996 30.8717C101.153 30.8404 101.247 30.8404 101.278 30.8404C101.372 30.8404 101.435 30.8717 101.435 30.9657C101.435 31.0284 101.372 31.0911 101.247 31.1224C101.122 31.1851 101.09 31.2478 101.059 31.3732C100.996 31.7806 100.902 32.094 100.808 32.4388C100.745 32.6268 100.683 32.8462 100.589 33.0029L100.463 33.191C100.463 33.3477 100.651 33.5358 100.996 33.7551C101.31 33.9745 101.56 34.0372 101.717 34.0372C101.842 34.0372 101.968 34.0059 102.03 33.9745C102.093 33.9745 102.156 33.9432 102.187 33.9432C102.281 33.9432 102.313 33.9745 102.313 34.0686C102.313 34.1312 102.218 34.2566 101.999 34.4133C101.748 34.6014 101.498 34.6641 101.184 34.6641C100.777 34.6641 100.244 34.4133 99.6798 33.9432C99.3977 34.1939 99.053 34.3506 98.6142 34.5073C98.2381 34.6014 97.8306 34.6641 97.4232 34.6641C96.4829 34.6641 95.7934 34.382 95.2606 33.8492C94.8531 33.4731 94.6651 33.0029 94.6651 32.5015ZM98.1754 34.1626C98.3634 34.1626 98.6142 34.1312 98.8962 34.0686C99.1783 33.9745 99.3037 33.8805 99.3037 33.8178C99.3037 33.7865 99.1156 33.5984 98.7395 33.285C98.2067 32.8776 97.7993 32.5328 97.5172 32.2507C97.0157 31.812 96.6396 31.3418 96.4202 30.9344C96.3262 30.7463 96.2322 30.6523 96.1695 30.6523C96.0441 30.6523 95.8874 30.7463 95.7621 30.8717C95.574 31.0911 95.48 31.3105 95.48 31.6239C95.48 32.1881 95.7621 32.7209 96.2949 33.2537C96.8904 33.8805 97.5172 34.1626 98.1754 34.1626Z" fill="#0E212F"/>
<path d="M103.848 34.0059L103.566 32.7835C103.535 32.6582 103.535 32.5642 103.535 32.5328C103.535 32.4388 103.598 32.3448 103.692 32.3448C103.786 32.3448 103.88 32.4388 103.88 32.5642C104.256 33.6925 104.883 34.2566 105.76 34.2566C106.136 34.2566 106.45 34.1626 106.669 33.9745C106.888 33.7551 107.014 33.4731 107.014 33.097C107.014 32.7522 106.857 32.5015 106.512 32.2821C106.418 32.2507 105.917 31.9687 104.945 31.5612C104.506 31.3732 104.193 31.1538 104.005 30.9657C103.754 30.715 103.629 30.3389 103.629 29.9001C103.629 29.3673 103.786 28.9285 104.099 28.5837C104.444 28.239 104.883 28.0509 105.415 28.0509C105.697 28.0509 106.011 28.0823 106.293 28.239C106.575 28.3644 106.763 28.427 106.826 28.427C106.857 28.427 106.951 28.3957 107.045 28.3644C107.17 28.3017 107.233 28.3017 107.264 28.3017C107.327 28.3017 107.359 28.333 107.39 28.3957C107.39 28.4897 107.421 28.5837 107.421 28.6464L107.515 29.9001C107.515 30.1195 107.484 30.2135 107.296 30.2135C107.264 30.2135 107.202 30.0568 107.076 29.7434C106.92 29.3986 106.763 29.1166 106.544 28.9285C106.23 28.6151 105.854 28.4897 105.415 28.4897C105.102 28.4897 104.851 28.5837 104.694 28.7405C104.506 28.8972 104.412 29.1479 104.412 29.4613C104.412 29.7121 104.538 29.9314 104.82 30.1195C104.914 30.1822 105.353 30.3702 106.136 30.715C106.7 30.9657 107.076 31.2165 107.327 31.4359C107.609 31.7493 107.735 32.1567 107.735 32.7209C107.735 33.3164 107.547 33.8178 107.17 34.1626C106.794 34.5387 106.293 34.7267 105.697 34.7267C105.447 34.7267 105.196 34.6954 104.883 34.6014C104.632 34.5387 104.381 34.4447 104.13 34.382C104.036 34.3506 103.974 34.3193 103.911 34.288C103.911 34.2253 103.88 34.1312 103.848 34.0059Z" fill="#0E212F"/>
<path d="M111.339 32V33.5984C111.339 33.8492 111.37 34.0059 111.37 34.0686C111.402 34.1313 111.464 34.1626 111.59 34.1626C111.621 34.1626 111.684 34.1626 111.746 34.1313C111.84 34.1313 111.872 34.1313 111.872 34.1313C111.934 34.1313 111.966 34.1313 111.966 34.2253C111.966 34.3193 111.872 34.4133 111.652 34.5387C111.433 34.6641 111.245 34.7268 111.088 34.7268C110.775 34.7268 110.555 34.5387 110.493 34.1626C110.023 34.5387 109.552 34.7268 109.051 34.7268C108.769 34.7268 108.612 34.6641 108.424 34.476C108.267 34.3193 108.173 34.1313 108.173 33.8805C108.173 33.3791 108.424 33.003 108.894 32.7836C109.082 32.6895 109.552 32.5328 110.336 32.3448C110.336 31.906 110.305 31.5612 110.211 31.3732C110.117 31.1224 109.866 30.9971 109.552 30.9971C109.364 30.9971 109.239 31.0598 109.208 31.1538C109.145 31.2165 109.145 31.3418 109.145 31.5299C109.145 31.812 108.926 31.9687 108.487 31.9687C108.33 31.9687 108.267 31.906 108.267 31.7806C108.267 31.4045 108.455 31.1538 108.863 30.9657C109.176 30.809 109.521 30.715 109.96 30.715C110.9 30.6523 111.339 31.1224 111.339 32ZM110.367 33.8492V32.9716C110.367 32.7836 110.367 32.6895 110.367 32.6895C110.367 32.6582 110.336 32.6268 110.305 32.6268C110.085 32.6268 109.835 32.6895 109.615 32.8462C109.333 33.0343 109.208 33.285 109.208 33.5358C109.208 33.9432 109.364 34.1626 109.678 34.1626C109.803 34.1626 109.96 34.1313 110.054 34.0999C110.273 34.0372 110.367 33.9432 110.367 33.8492Z" fill="#0E212F"/>
<path d="M112.655 33.7865V28.9912C112.655 28.8345 112.593 28.7405 112.499 28.6778C112.467 28.6464 112.373 28.6464 112.217 28.5837C112.122 28.5837 112.06 28.5524 112.06 28.4584C112.06 28.3957 112.091 28.3644 112.217 28.333C112.405 28.2703 112.593 28.2076 112.812 28.1763C113.094 28.0823 113.282 27.9883 113.439 27.8942C113.533 27.8315 113.596 27.8002 113.627 27.8002C113.658 27.8002 113.69 27.8315 113.69 27.9256C113.69 27.9256 113.69 28.0196 113.69 28.1763C113.69 28.333 113.69 28.4584 113.69 28.5837V33.8492C113.69 34.0372 113.721 34.1626 113.846 34.288C113.909 34.3193 114.034 34.382 114.16 34.4447C114.285 34.476 114.348 34.5387 114.348 34.57C114.348 34.6641 114.285 34.6954 114.16 34.6954C114.097 34.6954 113.909 34.6954 113.658 34.6641C113.376 34.6327 113.219 34.6327 113.125 34.6327C113.063 34.6327 112.906 34.6327 112.718 34.6641C112.53 34.6641 112.373 34.6954 112.311 34.6954C112.217 34.6954 112.154 34.6641 112.154 34.6327C112.154 34.5387 112.185 34.5074 112.279 34.476C112.405 34.476 112.499 34.4133 112.561 34.3506C112.593 34.1939 112.655 34.0372 112.655 33.7865Z" fill="#0E212F"/>
<path d="M117.607 32V33.5984C117.607 33.8492 117.607 34.0059 117.639 34.0686C117.67 34.1313 117.733 34.1626 117.827 34.1626C117.889 34.1626 117.921 34.1626 117.983 34.1313C118.046 34.1313 118.109 34.1313 118.14 34.1313C118.203 34.1313 118.234 34.1313 118.234 34.2253C118.234 34.3193 118.14 34.4133 117.921 34.5387C117.701 34.6641 117.513 34.7268 117.325 34.7268C117.012 34.7268 116.824 34.5387 116.761 34.1626C116.291 34.5387 115.821 34.7268 115.319 34.7268C115.069 34.7268 114.881 34.6641 114.693 34.476C114.536 34.3193 114.442 34.1313 114.442 33.8805C114.442 33.3791 114.693 33.003 115.131 32.7836C115.351 32.6895 115.789 32.5328 116.604 32.3448C116.604 31.906 116.573 31.5612 116.479 31.3732C116.354 31.1224 116.134 30.9971 115.821 30.9971C115.601 30.9971 115.476 31.0598 115.445 31.1538C115.413 31.2165 115.413 31.3418 115.413 31.5299C115.413 31.812 115.163 31.9687 114.755 31.9687C114.598 31.9687 114.536 31.906 114.536 31.7806C114.536 31.4045 114.724 31.1538 115.131 30.9657C115.445 30.809 115.821 30.715 116.228 30.715C117.169 30.6523 117.607 31.1224 117.607 32ZM116.636 33.8492V32.9716C116.636 32.7836 116.636 32.6895 116.636 32.6895C116.604 32.6582 116.604 32.6268 116.573 32.6268C116.354 32.6268 116.103 32.6895 115.883 32.8462C115.601 33.0343 115.476 33.285 115.476 33.5358C115.476 33.9432 115.633 34.1626 115.978 34.1626C116.134 34.1626 116.26 34.1313 116.385 34.0999C116.542 34.0372 116.636 33.9432 116.636 33.8492Z" fill="#0E212F"/>
<path d="M121.055 30.903V29.0539C121.055 28.8658 120.992 28.7405 120.898 28.6778C120.867 28.6778 120.773 28.6464 120.585 28.6151C120.491 28.6151 120.428 28.5524 120.428 28.4584C120.428 28.3957 120.553 28.3017 120.773 28.239C121.149 28.1763 121.494 28.0196 121.807 27.8629C121.87 27.8002 121.932 27.8002 121.964 27.8002C122.026 27.8002 122.026 27.8629 122.026 28.0509V33.6298C122.026 33.8492 122.089 34.0059 122.183 34.0686C122.246 34.1312 122.34 34.1312 122.497 34.1626C122.591 34.1626 122.622 34.1939 122.622 34.288C122.622 34.3506 122.497 34.4133 122.246 34.476C121.838 34.57 121.588 34.6014 121.525 34.6327C121.306 34.7267 121.18 34.7267 121.149 34.7267C121.086 34.7267 121.055 34.6954 121.055 34.6014C121.055 34.5387 121.024 34.3506 121.024 34.1313C120.616 34.5387 120.209 34.7267 119.739 34.7267C119.268 34.7267 118.892 34.5387 118.642 34.1626C118.422 33.8492 118.297 33.4731 118.297 32.9403C118.297 32.7209 118.297 32.5328 118.36 32.3761C118.485 31.906 118.673 31.4985 118.986 31.2165C119.331 30.8717 119.707 30.6837 120.177 30.6837C120.616 30.6523 120.898 30.7463 121.055 30.903ZM121.055 33.4417V31.5926C120.804 31.1851 120.459 30.9971 120.052 30.9971C119.739 30.9971 119.488 31.1538 119.331 31.4672C119.206 31.7179 119.143 32.0313 119.143 32.3761C119.143 32.7522 119.237 33.097 119.425 33.4417C119.645 33.8492 119.927 34.0999 120.303 34.0999C120.585 34.0999 120.773 34.0059 120.93 33.8805C121.024 33.8178 121.055 33.6611 121.055 33.4417Z" fill="#0E212F"/>
<path d="M33.3605 17.2067C33.0471 17.6768 32.6397 18.6484 32.0128 20.0274C31.8248 20.5289 31.5114 20.811 31.1039 20.811C30.6338 20.811 30.3204 20.4975 30.195 19.9021C29.8502 18.3976 29.3174 17.0499 28.5966 15.8903C28.1891 17.426 27.6563 18.9618 27.0295 20.4662C26.3086 22.19 25.4624 23.6004 24.4908 24.6974C23.5192 25.857 22.2655 26.3898 20.8238 26.3898C19.8835 26.3898 19.0686 26.0764 18.4418 25.4182C17.6896 24.6973 17.3448 23.7258 17.3448 22.5974C17.3448 21.6259 17.6269 20.7483 18.1597 20.0588C18.7239 19.3692 19.4134 19.0245 20.197 19.0245C20.479 19.0245 20.6671 19.0558 20.7611 19.1185C20.8551 19.2125 20.9492 19.4006 21.0432 19.6513C21.2626 20.2782 21.6387 20.5916 22.2028 20.5916C22.7983 20.5916 23.3938 20.2468 24.0207 19.5573C24.4594 19.0872 24.8355 18.429 25.1803 17.6768C25.5251 16.8619 25.9952 15.6082 26.622 13.7904C26.2146 13.5397 25.8071 13.383 25.4624 13.383C25.149 13.383 24.8982 13.5083 24.6788 13.6964C24.4908 13.8844 24.3654 14.1665 24.3654 14.4799C24.3654 14.6366 24.3968 14.856 24.4908 15.2008C24.4908 15.2948 24.5221 15.3261 24.5221 15.4202C24.5221 15.8276 24.2087 16.047 23.5819 16.047C23.0177 16.047 22.5789 15.7963 22.2028 15.3261C21.8267 14.856 21.67 14.3232 21.67 13.6023C21.67 12.5681 22.0461 11.7218 22.7983 11.0323C23.3938 10.4995 24.0833 10.2174 24.8982 10.2174C25.7445 10.2174 26.5907 10.5308 27.4056 11.1263L28.3772 7.36532C28.6279 6.39373 28.7533 5.64152 28.7533 5.10871C28.7533 4.60724 28.6906 4.1998 28.5025 3.85504C28.3145 3.51028 28.0011 3.10284 27.5309 2.63271C27.0922 2.19392 26.9041 1.81782 26.9041 1.53574C26.9041 1.25367 26.9668 1.03428 27.1548 0.846224C27.3429 0.658173 27.5623 0.564148 27.813 0.564148C28.0011 0.564148 28.2831 0.658173 28.7533 0.814883C30.0696 1.28501 31.1039 1.56709 31.8561 1.56709C32.6397 1.56709 33.6113 1.31635 34.8336 0.846224C35.3037 0.658173 35.6485 0.564148 35.8992 0.564148C36.4947 0.564148 36.7768 0.846224 36.7768 1.44172C36.7768 1.75514 36.5574 2.0999 36.1499 2.44466C35.3664 3.13418 34.9903 3.98041 34.9903 4.82664C34.9903 5.20274 35.053 5.70421 35.241 6.39373L39.002 20.5289C39.2841 21.5005 39.5662 22.2213 39.8796 22.7228C40.193 23.1929 40.6005 23.6004 41.1646 23.9138C41.5094 24.1332 41.6974 24.2586 41.8228 24.3839C41.9168 24.5093 41.9482 24.666 41.9482 24.8854C41.9482 25.4182 41.5094 25.7003 40.6318 25.7003H34.3321C33.6739 25.7003 33.3292 25.4809 33.3292 25.0108C33.3292 24.7287 33.5172 24.4466 33.8933 24.1959C34.4575 23.8511 34.7082 23.4437 34.7082 22.9422C34.7082 22.6601 34.6455 22.19 34.4888 21.5318L33.3605 17.2067ZM30.7905 7.42801L29.3488 13.2262C30.101 14.2605 30.7591 15.6082 31.2606 17.2067C31.6054 16.3918 32.0755 15.5142 32.671 14.5739L30.7905 7.42801Z" fill="#0E212F"/>
<path d="M51.288 0C52.291 0 53.6387 0.376102 55.3311 1.06562C56.3341 1.50441 57.0549 1.7238 57.5251 1.7238C57.7131 1.7238 58.0265 1.66112 58.4653 1.53575C58.5593 1.53575 58.6534 1.53575 58.7474 1.53575C58.9668 1.53575 59.1548 1.59843 59.3115 1.81783C59.4683 2.00588 59.5623 2.22527 59.5623 2.476C59.5623 2.85211 59.2489 3.32223 58.622 3.88639C57.5564 4.82664 56.7415 5.95495 56.2087 7.23996C55.9266 7.8668 55.5819 8.18022 55.1744 8.18022C54.7983 8.18022 54.5162 7.89814 54.2969 7.33399C53.6387 5.51616 52.6044 4.57591 51.288 4.57591C50.5985 4.57591 50.097 4.7953 49.6269 5.26543C49.1881 5.70421 48.9687 6.26836 48.9687 6.95788C48.9687 7.67875 49.2508 8.2429 49.815 8.68168C50.3791 9.08913 51.6955 9.62194 53.6387 10.2488C55.4565 10.8756 56.7729 11.5338 57.6504 12.192C59.5623 13.6964 60.5025 15.7649 60.5025 18.335C60.5025 20.6856 59.6563 22.5975 57.9638 24.1332C56.2714 25.6376 54.0775 26.3898 51.4447 26.3898C48.9374 26.3898 46.8375 25.7943 45.051 24.572C44.2361 24.0078 43.6093 23.3183 43.1392 22.4407C42.669 21.5632 42.4496 20.6543 42.4496 19.6827C42.4496 18.3976 42.8257 17.332 43.578 16.4545C44.3928 15.4829 45.4585 15.0127 46.7121 15.0127C48.0598 15.0127 49.2508 15.5455 50.2224 16.6425C50.5358 16.9559 50.7866 17.332 51.006 17.7395C51.2254 18.1783 51.3194 18.5544 51.3194 18.8364C51.3194 19.0558 51.2567 19.2125 51.1313 19.3692C51.0373 19.526 50.8806 19.5886 50.7239 19.5886C50.5672 19.5886 50.3791 19.4946 50.097 19.2125C49.4702 18.6484 48.9061 18.3663 48.4046 18.3663C47.9345 18.3663 47.527 18.5544 47.2136 18.8991C46.9315 19.2125 46.7435 19.6827 46.7435 20.2468C46.7435 21.0304 47.0569 21.7199 47.6524 22.284C48.53 23.1303 49.6269 23.569 50.9746 23.569C52.3537 23.569 53.5447 23.0676 54.4222 22.096C55.2371 21.2498 55.6132 20.2155 55.6132 19.0558C55.6132 17.5514 54.955 16.3918 53.6387 15.5769C52.8551 15.1381 51.5701 14.6053 49.7523 14.0411C48.4986 13.6337 47.5897 13.3203 47.0256 13.0069C46.4614 12.6934 45.9286 12.286 45.3958 11.7218C44.3302 10.5935 43.766 9.15181 43.766 7.36533C43.766 5.26543 44.4869 3.54163 45.9286 2.16259C47.433 0.720862 49.1881 0 51.288 0Z" fill="#0E212F"/>
<path d="M70.0305 14.8247V19.9647C70.0305 21.5318 70.1245 22.5348 70.2812 23.0049C70.4692 23.475 70.9394 23.8825 71.6916 24.2586C72.1304 24.478 72.3184 24.6973 72.3184 25.0421C72.3184 25.5436 72.005 25.763 71.3468 25.763H64.0755C63.4487 25.763 63.1353 25.5122 63.1353 25.0421C63.1353 24.8541 63.1979 24.6973 63.292 24.572C63.386 24.478 63.6367 24.3212 64.0442 24.1332C64.671 23.8198 65.0471 23.4437 65.2038 22.9735C65.3292 22.4721 65.4545 21.4691 65.4545 19.9647V8.49363C65.4545 6.26836 65.3605 4.82664 65.1725 4.16846C64.9844 3.51028 64.5456 2.88344 63.7934 2.31929C63.3233 1.94319 63.0726 1.59843 63.0726 1.28501C63.0726 1.1283 63.1353 0.94025 63.2606 0.814883C63.386 0.658174 63.5114 0.59549 63.6681 0.59549C63.7621 0.59549 64.0128 0.658174 64.3889 0.814883C65.5799 1.28501 66.6769 1.53574 67.6485 1.53574C68.7454 1.53574 69.8737 1.25367 71.0334 0.658174C71.2214 0.564148 71.3782 0.532806 71.5035 0.532806C71.7229 0.532806 71.8796 0.626832 72.0363 0.752199C72.1617 0.877566 72.2244 1.06562 72.2244 1.28501C72.2244 1.59843 71.9736 1.94319 71.4408 2.38197C70.814 2.88344 70.4066 3.41625 70.2498 4.07443C70.0931 4.66993 69.9991 6.17433 69.9991 8.55631V12.5994L76.4555 10.1547V8.52497C76.4555 6.2997 76.3928 4.85798 76.2048 4.1998C76.0167 3.54162 75.578 2.91478 74.8258 2.35063C74.3556 1.97453 74.0735 1.62977 74.0735 1.31635C74.0735 1.15964 74.1362 0.971592 74.2929 0.846225C74.387 0.689515 74.5437 0.626832 74.7004 0.626832C74.8258 0.626832 75.0451 0.689515 75.3899 0.846225C76.5809 1.31635 77.6779 1.56709 78.6495 1.56709C79.7778 1.56709 80.9061 1.28501 82.0344 0.689515C82.2224 0.59549 82.3791 0.564148 82.5045 0.564148C82.7239 0.564148 82.8806 0.658174 83.006 0.783541C83.1313 0.908908 83.2254 1.09696 83.2254 1.31635C83.2254 1.62977 82.9433 1.97453 82.4418 2.41332C81.7836 2.91478 81.4075 3.4476 81.2195 4.10577C81.0941 4.70127 81.0314 6.20568 81.0001 8.58765V20.0274C81.0001 21.5945 81.0941 22.5974 81.2508 23.0676C81.4389 23.5377 81.909 23.9451 82.6612 24.3212C83.0687 24.5406 83.288 24.76 83.288 25.1048C83.288 25.6063 82.9746 25.8257 82.3791 25.8257H75.0765C74.4497 25.8257 74.1362 25.5749 74.1362 25.1048C74.1362 24.9167 74.1676 24.76 74.2929 24.6347C74.387 24.5406 74.6377 24.3839 75.0451 24.1959C75.672 23.8825 76.0167 23.5064 76.2048 23.0362C76.3615 22.5348 76.4555 21.5318 76.4555 20.0274V12.3487L70.0305 14.8247Z" fill="#0E212F"/>
<path d="M111.151 11.9099C112.279 11.8785 112.969 11.095 113.282 9.55925C113.439 8.93242 113.564 8.49363 113.69 8.33692C113.815 8.14887 113.972 8.02351 114.222 8.02351C114.63 8.02351 114.818 8.49363 114.849 9.43389C114.881 10.7502 114.943 11.8159 115.131 12.5681C115.319 13.3516 115.695 14.5739 116.385 16.2664C116.51 16.5485 116.573 16.7679 116.573 16.9559C116.573 17.4574 116.354 17.7395 115.915 17.7395C115.664 17.7395 115.445 17.5514 115.194 17.2067C114.63 16.3291 114.222 15.7649 113.972 15.4829C113.69 15.1694 113.408 14.9187 113.031 14.6993C112.53 14.4172 111.934 14.2605 111.182 14.2605V17.332C111.182 18.8991 111.37 20.0901 111.809 20.8737C112.405 21.9706 113.533 22.5034 115.163 22.5034C117.451 22.5034 118.924 21.2184 119.519 18.6484C119.645 18.0842 119.77 17.6768 119.895 17.4887C119.989 17.3007 120.177 17.2067 120.397 17.2067C120.616 17.2067 120.804 17.332 120.898 17.5514C120.992 17.7708 121.086 18.2409 121.18 18.9618C121.431 20.999 122.089 22.6915 123.186 24.0078C123.688 24.6033 123.907 25.0421 123.907 25.3242C123.907 25.5436 123.844 25.7316 123.719 25.8883C123.594 26.0451 123.406 26.1391 123.218 26.1391C123.123 26.1391 122.998 26.1077 122.873 26.0451C122.246 25.857 121.65 25.763 121.024 25.763H105.227C104.6 25.763 104.287 25.5122 104.287 25.0421C104.287 24.8541 104.35 24.6974 104.444 24.572C104.538 24.478 104.789 24.3213 105.165 24.1332C105.823 23.8198 106.199 23.4123 106.356 22.9109C106.481 22.4094 106.544 21.2184 106.544 19.3379V8.90108C106.544 7.80411 106.45 7.05191 106.23 6.61312C106.042 6.17434 105.603 5.89226 104.945 5.67287C104.569 5.5475 104.412 5.32811 104.412 5.01469C104.412 4.29383 105.196 3.32223 106.794 2.0999C107.641 1.44172 108.644 0.940255 109.772 0.564153C110.9 0.188051 112.06 0 113.219 0C114.222 0 115.069 0.0940255 115.758 0.313418C116.479 0.501469 117.545 0.971596 118.986 1.69246C119.613 2.00588 120.115 2.16259 120.553 2.16259C120.93 2.16259 121.306 2.00588 121.65 1.78648C121.838 1.66112 121.995 1.59843 122.089 1.59843C122.371 1.59843 122.591 1.88051 122.779 2.41332C122.998 2.97747 123.092 3.60431 123.092 4.26249C123.092 5.73555 122.591 6.95788 121.556 7.89814C120.71 8.71303 119.707 9.12047 118.548 9.12047C117.576 9.12047 116.792 8.80705 116.228 8.14887C115.789 7.67875 115.601 7.14593 115.601 6.61312C115.601 6.23702 115.727 6.04897 115.978 6.04897C116.04 6.04897 116.134 6.08031 116.322 6.143C116.448 6.17434 116.542 6.20568 116.698 6.20568C117.012 6.20568 117.263 6.08031 117.419 5.82958C117.607 5.57884 117.701 5.26543 117.701 4.88932C117.701 4.26249 117.419 3.69833 116.886 3.25955C116.354 2.82076 115.695 2.60137 114.912 2.60137C114.128 2.60137 113.47 2.82076 112.875 3.29089C112.311 3.76102 111.872 4.38785 111.59 5.20274C111.276 6.20568 111.12 7.80411 111.12 10.0294V11.9099H111.151Z" fill="#0E212F"/>
<path d="M100.839 25.7316H86.955C86.3282 25.7316 86.0461 25.4809 86.0461 25.0108C86.0461 24.8227 86.0775 24.666 86.2028 24.5406C86.2968 24.4466 86.5476 24.2899 86.955 24.1019C87.5505 23.7884 87.958 23.4123 88.1147 22.9422C88.2714 22.4407 88.3654 21.4378 88.3654 19.9334V8.49363C88.3654 6.26836 88.2714 4.82664 88.1147 4.16846C87.958 3.51028 87.4878 2.88344 86.7356 2.31929C86.2655 1.94319 86.0148 1.59843 86.0148 1.28501C86.0148 1.1283 86.0775 0.94025 86.2028 0.814883C86.3282 0.658174 86.4536 0.59549 86.6103 0.59549C86.7356 0.59549 86.9864 0.658174 87.3311 0.814883C88.4908 1.28501 89.5877 1.53574 90.5593 1.53574C91.5623 1.53574 92.7533 1.25367 94.2263 0.658174C94.4144 0.564148 94.5711 0.532806 94.7278 0.532806C94.9158 0.532806 95.1039 0.626832 95.2293 0.783541C95.3546 0.94025 95.4487 1.09696 95.4487 1.31635C95.4487 1.5044 95.386 1.66111 95.292 1.78648C95.1666 1.8805 94.9158 2.0999 94.4457 2.38197C93.7562 2.8521 93.3174 3.38491 93.1607 4.01175C93.004 4.63858 92.91 6.04897 92.91 8.27424V17.332C92.91 18.7111 93.0353 19.7767 93.2861 20.4662C93.5368 21.093 93.9443 21.5945 94.5084 21.9706C95.0726 22.3781 95.6681 22.5348 96.3889 22.5348C97.4545 22.5348 98.3321 22.096 98.9903 21.2184C99.6798 20.2782 99.9932 19.2125 99.9932 17.9902C99.9932 17.144 99.8052 16.2351 99.3977 15.2635C99.241 14.856 99.147 14.5426 99.147 14.3545C99.147 14.1038 99.2097 13.9158 99.3664 13.7904C99.5231 13.665 99.6798 13.571 99.9305 13.571C100.463 13.571 101.059 14.0098 101.623 14.8874C102.344 16.047 102.751 17.4574 102.751 19.1498C102.751 19.4006 102.751 19.9647 102.689 20.811C102.689 21.0304 102.689 21.2184 102.689 21.3124C102.689 21.9079 102.751 22.4094 102.908 22.8168C103.033 23.1929 103.347 23.7571 103.786 24.4466C103.911 24.6347 103.974 24.8227 103.974 25.0421C103.974 25.3242 103.88 25.5749 103.692 25.763C103.504 25.9824 103.284 26.045 103.002 26.045C102.877 26.045 102.689 26.0137 102.469 25.951C102.093 25.857 101.56 25.763 100.839 25.7316Z" fill="#0E212F"/>
<path d="M131.774 14.3232L126.728 4.85798C126.195 3.8237 125.474 3.00881 124.691 2.41332C124.283 2.13124 124.001 1.88051 123.876 1.7238C123.75 1.56709 123.688 1.37904 123.688 1.19099C123.688 1.00294 123.75 0.846229 123.876 0.720862C124.001 0.595494 124.158 0.501469 124.346 0.501469C124.503 0.501469 124.816 0.658178 125.38 0.940254C126.226 1.37904 127.167 1.59843 128.232 1.59843C129.235 1.59843 130.207 1.3477 131.116 0.908913C131.648 0.658178 131.993 0.532811 132.15 0.532811C132.338 0.532811 132.463 0.626836 132.62 0.752203C132.714 0.877571 132.808 1.06562 132.808 1.28501C132.808 1.47307 132.777 1.66112 132.683 1.75514C132.62 1.84917 132.369 2.0999 131.931 2.41332C131.648 2.66405 131.523 2.97747 131.523 3.38492C131.523 3.8237 131.617 4.1998 131.837 4.57591L135.629 11.6592C135.974 10.9696 136.256 10.4682 136.475 10.1861C136.695 9.90402 137.071 9.43389 137.635 8.77571C138.293 7.99216 138.763 7.39667 139.014 6.98923C139.233 6.58178 139.327 6.17434 139.327 5.79824C139.327 5.39079 139.233 5.04603 139.014 4.7953C138.794 4.51322 138.512 4.38785 138.199 4.38785C137.666 4.38785 137.227 4.7953 136.914 5.64153C136.757 5.98629 136.569 6.17434 136.35 6.17434C136.036 6.17434 135.754 5.9236 135.504 5.45348C135.253 4.95201 135.127 4.4192 135.127 3.85504C135.127 2.85211 135.409 2.00588 136.068 1.28501C136.789 0.438785 137.729 0.0313416 138.92 0.0313416C140.079 0.0313416 141.051 0.438785 141.803 1.28501C142.555 2.13124 142.9 3.16552 142.9 4.45054C142.9 5.5475 142.649 6.5191 142.085 7.42801C141.772 7.96082 141.051 8.77571 139.954 9.87267C138.481 11.3771 137.541 12.6621 137.071 13.6964C136.6 14.7307 136.381 16.1724 136.381 18.0215V19.9647C136.381 21.5318 136.506 22.5348 136.663 22.9736C136.851 23.4437 137.321 23.8511 138.042 24.2272C138.481 24.4466 138.7 24.666 138.7 25.0108C138.7 25.5122 138.387 25.7316 137.76 25.7316H130.426C129.831 25.7316 129.517 25.4809 129.517 25.0108C129.517 24.8227 129.549 24.666 129.643 24.5406C129.737 24.4466 129.987 24.2899 130.395 24.1019C131.022 23.7884 131.366 23.4123 131.523 22.9422C131.68 22.4407 131.774 21.4378 131.774 19.9334V14.3232Z" fill="#0E212F"/>
<path d="M15.5897 13.5083C14.9942 11.9099 13.0823 10.1861 11.7347 9.46522C11.672 9.46522 11.6093 9.40254 11.5779 9.3712C11.5153 9.30851 11.4839 9.24583 11.4526 9.12046C11.4526 9.05778 11.4526 8.9951 11.4839 8.96375V8.93241C11.4839 8.90107 11.5466 8.83839 11.5779 8.7757C11.8287 8.43094 12.2048 8.18021 12.6122 8.08618C13.1137 7.89813 13.5211 8.14887 13.5838 8.36826C13.7092 8.74436 13.5838 9.15181 13.2704 9.55925C13.2077 9.59059 13.2077 9.65327 13.2077 9.71596C13.2077 9.84133 13.3331 9.96669 13.4585 9.96669C13.5525 9.96669 13.6152 9.90401 13.6778 9.87267C14.0226 9.3712 14.242 8.83839 14.0226 8.18021C13.8346 7.67874 13.0823 7.39666 12.4242 7.58471C11.954 7.74142 11.5779 8.05484 11.3585 8.30558C11.3585 8.30558 11.1705 8.55631 11.0765 8.71302C11.0138 8.80704 10.9198 8.90107 10.7631 8.90107C10.7631 8.90107 10.7317 8.90107 10.7004 8.90107C10.6063 8.90107 10.5123 8.86973 10.4183 8.80705L9.79146 8.52497C9.66609 8.49363 9.60341 8.3996 9.60341 8.27423C9.60341 8.21155 9.60341 8.14887 9.66609 8.08618V8.05484C9.69743 8.05484 9.69743 8.0235 9.69743 8.0235C10.3556 7.42801 11.2332 6.39373 10.7944 5.23408C10.481 4.38785 9.66609 3.76101 9.00791 3.51028C8.81986 3.41625 8.66315 3.41625 8.60047 3.51028C8.53778 3.57296 8.50644 3.66699 8.56913 3.91772C8.56913 3.9804 8.56913 4.01175 8.56913 4.04309C8.56913 4.13711 8.56913 4.23114 8.53778 4.29382V4.32516C8.50644 4.45053 8.41242 4.60724 8.28705 4.63858C8.19302 4.66992 8.03632 4.66992 7.87961 4.48187C7.62887 4.23114 7.1274 3.76101 6.93935 3.63564C6.68862 3.51028 6.21849 3.38491 5.9991 3.72967C5.81105 4.07443 5.96775 4.41919 6.28117 4.60724C6.50057 4.76395 7.09606 4.88932 7.40948 4.98334H7.44082C7.5035 4.98334 7.53485 5.01468 7.59753 5.04603C7.69155 5.10871 7.75424 5.20274 7.78558 5.26542C7.81692 5.3281 7.81692 5.35944 7.81692 5.45347C7.81692 5.5475 7.75424 5.64152 7.59753 5.70421H7.56619C7.37814 5.76689 7.25277 5.82957 7.25277 5.95494C7.25277 6.01762 7.28411 6.01762 7.31545 6.04896V5.95494C7.34679 5.98628 7.40948 6.01762 7.47216 6.08031C7.84826 6.23702 8.28705 6.58178 8.4751 7.11459C8.63181 7.52203 8.56913 8.0235 8.16168 8.14887C7.87961 8.24289 7.40948 8.05484 6.87667 7.58471C6.43788 7.30264 6.12446 6.95788 5.68568 6.48775C5.34092 6.01762 4.96482 5.57884 4.30664 5.45347L4.2753 5.42213C4.0559 5.39079 3.83651 5.35944 3.58578 5.35944C3.14699 5.35944 2.73955 5.42213 2.39479 5.5475H2.42613C2.23808 5.61018 2.14405 5.7042 2.11271 5.79823C2.01869 5.98628 2.11271 6.23702 2.26942 6.36238C2.42613 6.48775 2.48881 6.64446 2.52015 6.76983V6.80117C2.52015 6.89519 2.52015 6.98922 2.48881 7.08325C2.42613 7.20861 2.30076 7.33398 2.11271 7.33398C2.08137 7.33398 2.05003 7.33398 2.01869 7.33398C1.54856 7.33398 1.07843 7.49069 0.702329 7.71008C0.482936 7.71008 0.294885 7.89813 0.294885 7.89813C0.0128084 8.14887 -0.081217 8.52497 0.0754921 8.74436C0.169518 8.86973 0.326227 8.93241 0.514278 8.90107C0.514278 8.90107 0.608303 8.90107 0.670987 8.86973C0.953063 8.7757 1.10977 8.65034 1.26648 8.58765C1.29782 8.58765 1.39185 8.52497 1.42319 8.52497C1.42319 8.52497 1.48587 8.49363 1.5799 8.46228C1.79929 8.43094 1.98734 8.65034 2.01869 8.83839C2.01869 8.90107 2.01869 8.93241 1.98734 8.9951C1.86198 9.30851 1.79929 9.49657 1.92466 9.7473C2.05003 10.0921 2.64552 10.3741 3.20967 10.1861C3.80517 9.99803 4.11859 9.7473 4.6514 9.3712C4.96482 9.12046 5.84239 8.83839 6.3752 8.74436C7.1274 8.65034 7.78558 8.74436 7.91095 9.12046C8.00497 9.46522 7.94229 9.7473 7.53485 10.1861C7.15874 10.5622 6.56325 10.9069 6.06178 11.001C5.96775 11.0637 5.90507 11.0637 5.84239 11.0637C5.74836 11.095 5.68568 11.1577 5.68568 11.2204C5.65434 11.3144 5.68568 11.3771 5.74836 11.4398C5.7797 11.4711 5.81105 11.4711 5.81105 11.4711C5.90507 11.5024 5.96776 11.5651 5.9991 11.6278L6.03044 11.6592C6.06178 11.6905 6.09312 11.7532 6.09312 11.8159C6.12446 11.9099 6.06178 12.0039 5.96775 12.0666C5.93641 12.0979 5.87373 12.0979 5.84239 12.1293C4.77677 12.5054 4.55737 12.5681 4.55737 12.7875C4.55737 13.3203 5.84239 13.6023 6.46922 13.2889C7.3468 12.7875 7.66021 12.6934 7.7229 12.7561C7.84826 12.8188 7.94229 13.0068 7.91095 13.383C7.87961 13.7277 7.87961 13.8531 8.00497 13.9158C8.03632 13.9158 8.13034 13.9158 8.22437 13.8531C8.22437 13.8531 8.56913 13.6964 8.97657 13.2262C9.38401 12.8188 9.54072 12.3173 9.57206 11.7532C9.57206 11.0637 9.2273 10.0607 8.94523 9.46522C8.81986 9.18315 8.78852 9.08912 8.88254 8.90107C8.94523 8.80704 9.10194 8.74436 9.35267 8.86973L10.2929 9.33986C10.481 9.43388 10.6377 9.59059 10.6377 9.80998C10.669 9.87267 10.6377 9.90401 10.6063 9.96669L10.575 9.99803C10.387 10.6876 10.5123 11.5338 11.0138 12.286C11.7033 13.4456 12.9883 14.1978 13.9913 14.5739H14.0226C14.4927 14.7306 14.8375 15.1381 14.8688 15.6396C14.8688 15.7336 14.8688 15.8276 14.8688 15.953L14.8375 15.9843C14.8062 16.2037 14.7121 16.4231 14.6181 16.6112C14.242 17.3007 13.9913 17.238 13.9913 17.238C13.8346 17.2693 13.7092 17.1753 13.7092 17.0186C13.7092 16.9873 13.7092 16.9873 13.7092 16.9246C13.7405 16.7992 13.7405 16.6738 13.7405 16.5485C13.7405 16.4231 13.6778 16.2664 13.6465 16.1097C13.6465 16.1097 13.6465 16.0783 13.6152 16.047C13.5838 15.953 13.5211 15.859 13.4271 15.7649C13.145 15.4202 12.7376 15.1694 12.2361 15.2008C11.7973 15.2321 11.4212 15.4829 11.1705 15.8276C11.1705 15.8276 11.1705 15.8276 11.1705 15.859C11.1705 15.8903 11.1392 15.8903 11.1392 15.9216C10.9511 16.2351 10.8884 16.6738 11.0451 17.1126C11.2645 18.0529 12.2048 18.6797 13.3644 18.3976C14.7435 18.0529 16.4359 15.8276 15.5897 13.5083ZM14.6808 13.5083C14.6494 13.5397 14.5868 13.571 14.5241 13.6023C14.43 13.6023 14.336 13.571 14.1793 13.571C14.0226 13.5397 13.7719 13.4456 13.7719 13.4456C13.3017 13.2576 12.6436 13.0068 11.8914 12.38C11.3272 11.9099 10.9824 11.1263 10.9824 10.4368C10.9824 10.3115 10.9824 10.2488 11.0138 10.1547C11.0451 10.0607 11.1392 9.99803 11.2332 9.99803C11.2959 9.99803 11.3585 9.99803 11.3899 10.0294L11.4526 10.0607C11.5779 10.1234 12.6749 10.9696 13.0823 11.3457C13.5525 11.8159 14.2107 12.5681 14.5868 13.0695C14.6494 13.1009 14.6494 13.1636 14.6808 13.2262C14.7748 13.2889 14.7748 13.4143 14.6808 13.5083Z" fill="#0E212F"/>
<path d="M146.661 18.3976C147.821 18.6797 148.761 18.0842 148.98 17.1126C149.106 16.6738 149.075 16.2351 148.886 15.9216C148.886 15.8903 148.855 15.859 148.855 15.859V15.8276C148.636 15.4829 148.228 15.2321 147.758 15.2008C147.288 15.1694 146.881 15.4202 146.599 15.7649C146.536 15.8276 146.473 15.953 146.41 16.047C146.41 16.0784 146.41 16.1097 146.41 16.1097C146.379 16.2664 146.316 16.3918 146.285 16.5485C146.285 16.6738 146.316 16.7992 146.348 16.9246C146.348 16.9559 146.379 16.9559 146.379 17.0186C146.348 17.1753 146.254 17.2693 146.097 17.238C146.097 17.238 145.846 17.3007 145.47 16.6112C145.376 16.4231 145.282 16.2037 145.251 15.9843V15.953C145.219 15.8276 145.219 15.7336 145.219 15.6396C145.251 15.1381 145.596 14.6993 146.066 14.5739H146.097C147.1 14.1978 148.385 13.477 149.075 12.286C149.545 11.5338 149.67 10.7189 149.482 9.99804L149.451 9.96669C149.451 9.90401 149.451 9.87267 149.451 9.80999C149.451 9.59059 149.576 9.46523 149.795 9.33986L150.736 8.86973C150.986 8.77571 151.112 8.83839 151.174 8.90107C151.268 9.05778 151.237 9.18315 151.112 9.46523C150.83 10.0607 150.485 11.0637 150.485 11.7532C150.548 12.286 150.673 12.7875 151.08 13.2262C151.519 13.6964 151.833 13.8531 151.833 13.8531C151.958 13.9158 152.021 13.9158 152.083 13.9158C152.209 13.8531 152.209 13.7277 152.177 13.383C152.146 12.9755 152.209 12.8188 152.365 12.7561C152.459 12.6934 152.742 12.7875 153.619 13.2889C154.277 13.6023 155.562 13.2889 155.562 12.7875C155.562 12.5994 155.343 12.5054 154.277 12.1293C154.246 12.0979 154.215 12.0979 154.152 12.0666C154.058 12.0353 153.995 11.9412 154.027 11.8159C154.027 11.7532 154.027 11.6905 154.089 11.6592V11.6278C154.152 11.5651 154.215 11.5024 154.309 11.4711C154.309 11.4711 154.34 11.4398 154.371 11.4398C154.434 11.3457 154.465 11.2831 154.434 11.2204C154.403 11.1577 154.371 11.095 154.246 11.0637C154.183 11.0637 154.121 11.0637 153.995 11.001C153.494 10.9069 152.898 10.5622 152.522 10.1861C152.115 9.77864 152.021 9.49657 152.146 9.12047C152.271 8.77571 152.93 8.65034 153.682 8.74436C154.215 8.83839 155.092 9.12047 155.406 9.3712C155.938 9.7473 156.252 9.99804 156.847 10.1861C157.38 10.3741 158.007 10.0921 158.132 9.7473C158.226 9.49657 158.164 9.30852 158.038 8.9951C158.007 8.93241 158.007 8.90107 158.007 8.83839C158.038 8.619 158.195 8.43095 158.414 8.46229C158.508 8.46229 158.571 8.52497 158.571 8.52497C158.602 8.52497 158.665 8.55631 158.696 8.58765C158.822 8.68168 159.01 8.80705 159.292 8.86973C159.355 8.90107 159.449 8.90107 159.449 8.90107C159.605 8.93241 159.793 8.86973 159.887 8.74436C160.075 8.52497 159.981 8.14887 159.668 7.89813C159.668 7.89813 159.48 7.74143 159.292 7.6474C158.916 7.42801 158.446 7.2713 157.976 7.2713C157.944 7.2713 157.913 7.2713 157.882 7.2713H157.85C157.694 7.23996 157.568 7.14593 157.474 7.02056C157.443 6.92654 157.443 6.83251 157.474 6.73849V6.70714C157.505 6.58178 157.599 6.42507 157.725 6.2997C157.882 6.14299 157.976 5.9236 157.882 5.73555C157.819 5.64152 157.725 5.5475 157.568 5.48481H157.537C157.192 5.35945 156.785 5.29676 156.377 5.29676C156.126 5.29676 155.876 5.3281 155.688 5.35945L155.656 5.39079C155.029 5.51616 154.653 5.98628 154.277 6.42507C153.87 6.8952 153.556 7.23996 153.149 7.52203C152.616 7.99216 152.115 8.18021 151.833 8.08619C151.425 7.96082 151.394 7.45935 151.551 7.05191C151.739 6.51909 152.209 6.17433 152.553 6.01763C152.616 5.95494 152.679 5.9236 152.71 5.89226L152.742 5.86092C152.742 5.86092 152.773 5.82957 152.773 5.76689C152.773 5.67286 152.616 5.57884 152.459 5.51616H152.428C152.24 5.48481 152.209 5.39079 152.209 5.26542C152.209 5.1714 152.209 5.14005 152.271 5.07737C152.303 5.01469 152.365 4.952 152.459 4.85798C152.491 4.85798 152.553 4.82664 152.616 4.79529C152.93 4.70127 153.525 4.5759 153.744 4.41919C154.027 4.23114 154.215 3.88638 153.995 3.54162C153.776 3.19686 153.306 3.32223 153.055 3.4476C152.836 3.57296 152.365 4.04309 152.146 4.29382C151.958 4.51322 151.801 4.51322 151.707 4.45053C151.582 4.41919 151.488 4.29382 151.425 4.13712V4.10577C151.394 4.04309 151.394 3.94906 151.394 3.85504C151.394 3.8237 151.394 3.79236 151.394 3.72967H151.425C151.456 3.4476 151.456 3.38491 151.394 3.32223C151.331 3.2282 151.174 3.2282 150.986 3.32223C150.328 3.54162 149.513 4.16846 149.2 5.04603C148.761 6.20568 149.639 7.23996 150.297 7.83545L150.328 7.86679V7.89813C150.36 7.96082 150.391 7.99216 150.391 8.08619C150.36 8.21155 150.328 8.30558 150.203 8.33692L149.607 8.619C149.513 8.68168 149.419 8.71302 149.325 8.71302C149.294 8.71302 149.294 8.71302 149.263 8.71302C149.137 8.71302 149.043 8.619 148.98 8.52497H148.949C148.855 8.36826 148.667 8.11753 148.667 8.11753C148.448 7.86679 148.103 7.55337 147.601 7.39667C146.943 7.17727 146.191 7.45935 145.972 7.99216C145.752 8.619 145.94 9.18315 146.316 9.68462C146.379 9.7473 146.442 9.77864 146.536 9.77864C146.661 9.77864 146.787 9.68462 146.787 9.52791C146.787 9.46523 146.787 9.3712 146.755 9.3712C146.442 8.9951 146.285 8.58765 146.442 8.18021C146.536 7.96082 146.912 7.71008 147.413 7.89813C147.789 8.0235 148.197 8.24289 148.416 8.58765C148.479 8.65034 148.479 8.71302 148.51 8.74436V8.77571C148.542 8.80705 148.542 8.86973 148.542 8.93241C148.542 9.05778 148.479 9.12047 148.416 9.18315C148.385 9.21449 148.322 9.24583 148.291 9.27717C146.975 9.99804 145.031 11.7218 144.436 13.3203C143.527 15.8276 145.251 18.0529 146.661 18.3976ZM145.251 13.1949C145.282 13.1322 145.282 13.1009 145.313 13.0382C145.69 12.5367 146.348 11.7845 146.818 11.3144C147.225 10.9383 148.322 10.0921 148.448 10.0294L148.51 9.99804C148.542 9.96669 148.604 9.96669 148.667 9.96669C148.761 9.96669 148.855 9.99804 148.886 10.1234C148.918 10.2174 148.918 10.2801 148.918 10.4055C148.918 11.095 148.573 11.8785 148.04 12.3487C147.319 12.9755 146.63 13.2262 146.16 13.4143C146.16 13.4143 145.909 13.5083 145.784 13.5397C145.658 13.571 145.533 13.571 145.439 13.571C145.376 13.5397 145.313 13.5397 145.282 13.477C145.188 13.4143 145.188 13.2889 145.251 13.1949Z" fill="#0E212F"/>
</svg>
