<svg width="160" height="35" viewBox="0 0 160 35" fill="none" xmlns="http://www.w3.org/2000/svg">
<g clip-path="url(#clip0_24_273)">
<path d="M42.6249 32.3761H40.8384C40.5877 32.3761 40.4309 32.5955 40.2429 33.0343C40.1489 33.379 40.0548 33.6611 40.0548 33.7551C40.0548 33.9432 40.1489 34.0999 40.3056 34.1939C40.3683 34.2253 40.525 34.2879 40.7757 34.3193C40.9638 34.382 41.0264 34.4133 41.0264 34.5073C41.0264 34.57 40.9638 34.6014 40.8697 34.6327C40.9324 34.6327 40.8071 34.6014 40.525 34.6014C40.4623 34.6014 40.3056 34.6014 40.1175 34.6014C39.9295 34.57 39.7728 34.57 39.6787 34.57C39.5847 34.57 39.4594 34.57 39.2713 34.6014C39.0833 34.6014 38.9579 34.6327 38.8639 34.6327C38.6758 34.6327 38.5818 34.6014 38.5818 34.5387C38.5818 34.476 38.6758 34.382 38.8639 34.2879C39.0519 34.1939 39.2086 34.0372 39.2713 33.8492L41.7473 28.2703C41.8413 28.0823 41.904 27.9569 41.9667 27.9569C41.998 27.9569 42.0921 28.0509 42.1547 28.239L44.6307 33.8805C44.7248 34.0685 44.8501 34.1939 44.9755 34.2566C45.0069 34.2879 45.1322 34.3193 45.3203 34.3506C45.4143 34.382 45.477 34.4133 45.477 34.5073C45.477 34.57 45.4456 34.6014 45.383 34.6327C45.3516 34.6327 45.2889 34.6327 45.1322 34.6327C45.0382 34.6327 44.8815 34.6327 44.6307 34.6014C44.38 34.57 44.1606 34.57 43.9412 34.57C43.7845 34.57 43.6278 34.57 43.3771 34.6014C43.1577 34.6014 43.001 34.6327 42.9069 34.6327C42.7189 34.6327 42.6249 34.6014 42.6249 34.5387C42.6249 34.4447 42.7189 34.382 42.9383 34.2566C43.1577 34.1626 43.2517 34.0059 43.2517 33.8178C43.2517 33.6611 43.189 33.4731 43.095 33.191C43.0323 33.0343 42.9383 32.8462 42.8756 32.6895C42.907 32.5015 42.7502 32.3761 42.6249 32.3761ZM41.0578 31.8746H42.3115C42.4995 31.8746 42.5935 31.8746 42.5935 31.8119C42.5935 31.7179 42.5622 31.6239 42.4682 31.4672L41.7473 29.8061C41.6846 29.7434 41.6846 29.7434 41.6533 29.7434C41.6219 29.7434 41.5906 29.8061 41.5593 29.8374L40.8384 31.4672C40.7757 31.6239 40.7444 31.7493 40.7444 31.8119C40.7757 31.8433 40.9011 31.8746 41.0578 31.8746Z" fill="white"/>
<path d="M49.5201 32.1567V33.8492C49.5201 34.0372 49.5514 34.1312 49.6768 34.2253C49.7081 34.2566 49.8022 34.288 49.9589 34.3506C50.0842 34.382 50.1156 34.4133 50.1156 34.5073C50.1156 34.6014 50.0842 34.6327 49.9902 34.6327C49.9589 34.6327 49.8648 34.6327 49.6768 34.6014C49.4887 34.57 49.3634 34.57 49.1753 34.57C48.9873 34.57 48.7992 34.57 48.6112 34.6014C48.4545 34.6014 48.3604 34.6327 48.3291 34.6327C48.2037 34.6327 48.1724 34.6014 48.1724 34.5073C48.1724 34.476 48.2037 34.382 48.3291 34.3193C48.4545 34.2253 48.5171 34.0999 48.5171 33.9118V32.2821C48.5171 31.8746 48.4858 31.5926 48.3291 31.4358C48.2351 31.3105 48.047 31.2478 47.8276 31.2478C47.6082 31.2478 47.4202 31.3105 47.2948 31.4672C47.2008 31.5926 47.1694 31.6866 47.1694 31.8119V33.9118C47.1694 34.0999 47.2008 34.1939 47.2948 34.288C47.3261 34.3193 47.4202 34.3193 47.6082 34.4133C47.7336 34.4447 47.7649 34.5073 47.7649 34.57C47.7649 34.6641 47.6709 34.6954 47.4515 34.6954C47.3575 34.6954 47.2008 34.6954 47.0127 34.6641C46.8247 34.6327 46.668 34.6327 46.6053 34.6327C46.5113 34.6327 46.4172 34.6327 46.2605 34.6641C46.1038 34.6641 46.0098 34.6954 45.9471 34.6954C45.8531 34.6954 45.7904 34.6954 45.7904 34.6954C45.7591 34.6954 45.7277 34.6327 45.7277 34.57C45.7277 34.476 45.7904 34.4447 45.9471 34.382C46.1038 34.3193 46.1665 34.2253 46.1665 34.0686V31.7179C46.1665 31.5612 46.0725 31.4358 45.8844 31.4045C45.6964 31.3732 45.6023 31.3418 45.6023 31.2478C45.6023 31.1851 45.665 31.1538 45.7277 31.1224C45.7591 31.0911 45.8844 31.0911 46.0725 31.0284C46.3859 30.9344 46.6366 30.8717 46.8247 30.7777C46.9814 30.6523 47.0754 30.621 47.0754 30.621C47.1381 30.621 47.2008 30.6836 47.2008 30.809V31.2791C47.5455 30.903 47.953 30.6836 48.3604 30.6836C48.7992 30.6836 49.144 30.903 49.4574 31.3418C49.7708 30.903 50.1783 30.6836 50.6797 30.6836C51.1812 30.6836 51.526 30.8404 51.714 31.1538C51.8707 31.4045 51.9334 31.8119 51.9334 32.3448V33.9118C51.9334 34.1312 52.0274 34.2566 52.2155 34.3193C52.4035 34.4133 52.4975 34.4447 52.4975 34.5387C52.4975 34.6327 52.4035 34.6954 52.2155 34.6954C52.1528 34.6954 52.0588 34.6954 51.9647 34.6641C51.8394 34.6327 51.7453 34.6327 51.6827 34.6327C51.5573 34.6327 51.3692 34.6327 51.1812 34.6641C50.9618 34.6641 50.8364 34.6954 50.8051 34.6954C50.6797 34.6954 50.617 34.6327 50.617 34.57C50.617 34.5073 50.6797 34.4447 50.7737 34.382C50.8991 34.3193 50.9618 34.2253 50.9618 34.1312V32.4701C50.9618 32.094 50.9305 31.8119 50.8678 31.6552C50.7738 31.4045 50.5544 31.2478 50.2409 31.2478C49.7395 31.1851 49.5201 31.4985 49.5201 32.1567Z" fill="white"/>
<path d="M56.0705 32.4074H53.8452C53.7512 32.4074 53.6572 32.4074 53.6572 32.4388C53.6572 32.4388 53.6259 32.5328 53.6259 32.6582C53.6259 33.0656 53.7826 33.4104 54.0333 33.7238C54.284 34.0059 54.5975 34.1626 55.0049 34.1626C55.1929 34.1626 55.4437 34.0686 55.6944 33.9118C55.9765 33.7551 56.0705 33.6611 56.1019 33.6611C56.1959 33.6611 56.1959 33.6925 56.1959 33.7551C56.1959 33.9118 56.0392 34.0999 55.6944 34.3193C55.287 34.6014 54.9109 34.7267 54.5034 34.7267C54.002 34.7267 53.5945 34.57 53.2498 34.2879C52.8736 33.9432 52.6856 33.4731 52.6856 32.9089C52.6856 32.3134 52.8423 31.8119 53.1244 31.3732C53.4378 30.903 53.9079 30.6836 54.4721 30.6836C55.0049 30.6836 55.4437 30.903 55.7884 31.2791C56.0705 31.5926 56.1959 31.906 56.1959 32.2507C56.1959 32.3134 56.1959 32.4074 56.0705 32.4074ZM53.6885 32.0627H55.0049C55.0989 32.0627 55.1616 32.0627 55.1929 32.0313C55.2243 32 55.2243 31.906 55.2243 31.8119C55.2243 31.5926 55.1616 31.4045 55.0049 31.2164C54.8482 31.0284 54.6288 30.903 54.3781 30.903C54.1273 30.903 53.9393 31.0284 53.7826 31.2164C53.6885 31.3732 53.5945 31.6239 53.5945 31.8433C53.6259 32 53.6572 32.0627 53.6885 32.0627Z" fill="white"/>
<path d="M58.1077 32.4074V33.6298C58.1077 33.8805 58.1704 34.0686 58.2958 34.1626C58.3898 34.2253 58.5152 34.288 58.7032 34.3193C58.8286 34.382 58.8913 34.4133 58.8913 34.476C58.8913 34.57 58.8599 34.6327 58.7346 34.6327C58.6719 34.6327 58.5152 34.6327 58.2644 34.6014C58.0137 34.57 57.8257 34.57 57.7316 34.57C57.5749 34.57 57.3869 34.57 57.1988 34.6014C57.0108 34.6014 56.8541 34.6327 56.8227 34.6327C56.7287 34.6327 56.666 34.6014 56.666 34.57C56.666 34.476 56.6974 34.4133 56.7914 34.382C56.9167 34.3193 56.9794 34.2566 57.0108 34.2566C57.0735 34.1626 57.1048 34.0059 57.1048 33.8178V31.6552C57.1048 31.4985 57.0108 31.3732 56.8227 31.3418C56.6347 31.3105 56.5406 31.2791 56.5406 31.1851C56.5406 31.1224 56.572 31.0911 56.6347 31.0597C56.6974 31.0284 56.7914 31.0284 57.0108 30.9657C57.3242 30.8717 57.5749 30.809 57.763 30.715C57.9197 30.5896 58.0137 30.5583 58.0137 30.5583C58.0764 30.5583 58.1391 30.621 58.1391 30.7463V31.4672C58.5779 30.903 58.9226 30.621 59.0793 30.621C59.1734 30.621 59.3614 30.715 59.5181 30.8717C59.7062 31.0284 59.8002 31.1224 59.8002 31.2165C59.8002 31.4045 59.7375 31.5612 59.6435 31.7179C59.5495 31.906 59.4241 32 59.3614 32C59.3301 32 59.236 31.9373 59.1107 31.8119C58.9853 31.6866 58.8286 31.6239 58.6405 31.6239C58.2331 31.6552 58.1077 31.906 58.1077 32.4074Z" fill="white"/>
<path d="M60.4897 34.0372V31.6866C60.4897 31.5299 60.3957 31.4045 60.1763 31.3732C59.9882 31.3418 59.8942 31.3105 59.8942 31.2478C59.8942 31.1538 59.9569 31.1224 60.0196 31.0911C60.0509 31.0911 60.1763 31.0597 60.3957 30.9971C60.7091 30.903 60.9598 30.8404 61.1166 30.7463C61.2733 30.621 61.3673 30.5896 61.3673 30.5896C61.4613 30.5896 61.4927 30.6523 61.4927 30.7777V33.8805C61.4927 34.0686 61.5553 34.1626 61.6807 34.2566C61.6807 34.288 61.8061 34.288 61.9941 34.382C62.0882 34.4133 62.1822 34.476 62.1822 34.5387C62.1822 34.6327 62.0255 34.6641 61.8061 34.6641C61.712 34.6641 61.5553 34.6641 61.3673 34.6327C61.1792 34.6014 61.0225 34.6014 60.9285 34.6014C60.8345 34.6014 60.7405 34.6014 60.5837 34.6327C60.427 34.6327 60.333 34.6641 60.239 34.6641C60.145 34.6641 60.0509 34.6641 60.0509 34.6641C60.0196 34.6641 59.9882 34.6014 59.9882 34.5387C59.9882 34.4447 60.0823 34.4133 60.239 34.3506C60.3957 34.288 60.4897 34.1626 60.4897 34.0372ZM61.618 29.1792C61.618 29.2733 61.524 29.3986 61.3673 29.5867C61.1792 29.8061 61.0539 29.9001 60.9912 29.9001C60.9285 29.9001 60.8031 29.8061 60.6151 29.5867C60.4584 29.3986 60.3644 29.2733 60.3644 29.1792C60.3644 29.1166 60.4584 28.9598 60.6151 28.7718C60.8031 28.5837 60.8972 28.4584 60.9912 28.4584C61.0539 28.4584 61.1792 28.5837 61.3673 28.7718C61.4927 28.9598 61.618 29.0852 61.618 29.1792Z" fill="white"/>
<path d="M62.3389 32.8776C62.3389 32.2507 62.5583 31.7179 62.9657 31.3105C63.3732 30.8717 63.906 30.6523 64.5015 30.6523C64.7209 30.6523 64.9716 30.715 65.2223 30.809C65.5044 30.9344 65.6611 31.1224 65.6611 31.3418C65.6611 31.4045 65.5671 31.5299 65.379 31.6866C65.191 31.8433 65.0656 31.906 64.9716 31.906C64.9089 31.906 64.8776 31.8746 64.8776 31.7806C64.7835 31.5299 64.7209 31.3418 64.6268 31.2164C64.5015 31.0597 64.3448 30.9971 64.094 30.9971C63.5299 30.9971 63.2478 31.4045 63.2478 32.2194C63.2478 32.6895 63.3732 33.1283 63.5926 33.5044C63.8746 33.9118 64.188 34.1312 64.5955 34.1312C64.8149 34.1312 65.0343 34.0372 65.3164 33.8805C65.5984 33.7238 65.7238 33.6298 65.7551 33.6298C65.8178 33.6298 65.8178 33.6611 65.8178 33.7238C65.8178 33.8805 65.6298 34.0686 65.3164 34.2879C64.9402 34.57 64.5328 34.6954 64.094 34.6954C63.5926 34.6954 63.1538 34.5073 62.8403 34.1626C62.4956 33.8178 62.3389 33.4104 62.3389 32.8776Z" fill="white"/>
<path d="M69.3281 32V33.5984C69.3281 33.8492 69.3281 34.0059 69.3595 34.0686C69.3908 34.1312 69.4535 34.1626 69.5788 34.1626C69.6415 34.1626 69.6729 34.1626 69.7356 34.1312C69.8296 34.1312 69.8609 34.1312 69.8923 34.1312C69.9549 34.1312 69.9863 34.1312 69.9863 34.2253C69.9863 34.3193 69.8609 34.4133 69.6729 34.5387C69.4535 34.6641 69.2654 34.7267 69.1087 34.7267C68.7953 34.7267 68.6072 34.5387 68.5132 34.1626C68.0431 34.5387 67.573 34.7267 67.1028 34.7267C66.8521 34.7267 66.6327 34.6641 66.4447 34.476C66.288 34.3193 66.1939 34.1312 66.1939 33.8805C66.1939 33.379 66.4447 33.0029 66.9148 32.7835C67.0715 32.6895 67.573 32.5328 68.3565 32.3448C68.3565 31.906 68.3252 31.5612 68.2311 31.3732C68.1058 31.1224 67.8864 30.9971 67.5416 30.9971C67.3536 30.9971 67.2282 31.0597 67.1969 31.1538C67.1655 31.2165 67.1342 31.3418 67.1342 31.5299C67.1342 31.8119 66.9148 31.9687 66.476 31.9687C66.3193 31.9687 66.2566 31.906 66.2566 31.7806C66.2566 31.4045 66.476 31.1538 66.8521 30.9657C67.1655 30.809 67.5103 30.715 67.9177 30.715C68.858 30.6523 69.3281 31.1224 69.3281 32ZM68.3252 33.8492V32.9716C68.3252 32.7835 68.3252 32.6895 68.3252 32.6895C68.3252 32.6582 68.2938 32.6268 68.2625 32.6268C68.0431 32.6268 67.8237 32.6895 67.6043 32.8462C67.3222 33.0343 67.1969 33.285 67.1969 33.5357C67.1969 33.9432 67.3536 34.1626 67.667 34.1626C67.8237 34.1626 67.9491 34.1312 68.0744 34.0999C68.2311 34.0372 68.3252 33.9432 68.3252 33.8492Z" fill="white"/>
<path d="M70.5818 33.7865V31.6866C70.5818 31.5299 70.4878 31.4045 70.2997 31.3732C70.0803 31.3418 69.9863 31.3105 69.9863 31.2165C69.9863 31.1538 70.0176 31.1224 70.0803 31.0911C70.1117 31.0597 70.2684 31.0597 70.4251 30.9971C70.7385 30.903 70.9892 30.8403 71.2086 30.7463C71.3653 30.621 71.4593 30.5896 71.4593 30.5896C71.522 30.5896 71.5534 30.6523 71.5534 30.7777V31.3105H71.5847C71.8354 30.8717 72.2429 30.6523 72.807 30.6523C73.2772 30.6523 73.6219 30.8403 73.904 31.1851C74.1234 31.4985 74.2174 31.8746 74.2174 32.3761V33.8492C74.2174 34.0059 74.2801 34.1312 74.3741 34.2566C74.4055 34.288 74.4995 34.3506 74.6249 34.382C74.7502 34.4133 74.7816 34.476 74.7816 34.5073C74.7816 34.57 74.7189 34.6327 74.5622 34.6327C74.4682 34.6327 74.3115 34.6327 74.1234 34.6014C73.9667 34.57 73.8413 34.57 73.7786 34.57C73.6846 34.57 73.5279 34.57 73.4025 34.6014C73.2145 34.6014 73.1205 34.6327 73.0891 34.6327C72.9324 34.6327 72.8697 34.6327 72.8697 34.6327C72.807 34.6327 72.807 34.57 72.807 34.5073C72.807 34.476 72.8697 34.382 73.0264 34.288C73.1831 34.1939 73.2458 34.0999 73.2458 33.9432V32.3761C73.2458 31.6239 72.9638 31.2478 72.3369 31.2478C71.8355 31.2478 71.5847 31.5299 71.5847 32.1254V33.8492C71.5847 34.0059 71.6474 34.0999 71.7728 34.1939C71.8355 34.2253 71.9295 34.2566 72.1175 34.3506C72.2429 34.382 72.3056 34.4447 72.3056 34.5073C72.3056 34.57 72.2116 34.6327 72.0235 34.6327C71.6161 34.6014 71.334 34.57 71.1146 34.57C71.0206 34.57 70.8325 34.57 70.6445 34.6014C70.4251 34.6014 70.2997 34.6327 70.2057 34.6327C70.1117 34.6327 70.0803 34.6014 70.0803 34.5387C70.0803 34.476 70.1117 34.382 70.237 34.382C70.331 34.3193 70.4251 34.2566 70.4564 34.2566C70.5504 34.1312 70.5818 33.9745 70.5818 33.7865Z" fill="white"/>
<path d="M81.9589 28.7404V30.2762C81.9589 30.4016 81.8648 30.4642 81.7395 30.4642C81.7081 30.4642 81.6454 30.2762 81.4887 29.9314C81.332 29.524 81.1126 29.2106 80.8306 28.9912C80.3918 28.6464 79.8276 28.4584 79.1068 28.4584C78.5739 28.4584 78.1352 28.6464 77.7591 29.0225C77.2889 29.524 77.0382 30.2762 77.0382 31.3418C77.0382 32.0627 77.2262 32.6895 77.5397 33.285C77.9471 33.9432 78.4799 34.2566 79.1694 34.2566C79.8903 34.2566 80.3918 34.0999 80.6425 33.8178C80.7992 33.6298 80.8619 33.3163 80.8619 32.9402C80.8619 32.5328 80.7679 32.2507 80.5798 32.094C80.4858 32 80.2977 31.9373 80.0784 31.906C79.8903 31.906 79.7963 31.8433 79.7963 31.7806C79.7963 31.6552 79.859 31.5925 79.9843 31.5925C79.953 31.5925 80.0784 31.5925 80.2664 31.5925C80.3918 31.5925 80.6112 31.5925 80.9246 31.5925C81.2067 31.5925 81.3947 31.6239 81.5514 31.6239C81.6768 31.6239 81.8335 31.6239 82.0529 31.5925C82.2723 31.5925 82.429 31.5925 82.523 31.5925C82.5857 31.5925 82.617 31.6239 82.617 31.6866C82.617 31.7806 82.5544 31.8433 82.4603 31.8746C82.335 31.906 82.2096 31.9686 82.1469 32.0627C82.0529 32.188 81.9902 32.4388 81.9902 32.7835C81.9902 32.9402 81.9902 33.097 82.0215 33.2537C82.0215 33.4104 82.0215 33.5044 82.0215 33.5357C82.0215 33.6924 81.9902 33.7238 81.9275 33.7865C80.8306 34.382 79.859 34.664 79.0127 34.664C77.8531 34.664 77.0069 34.2253 76.474 33.4104C76.0979 32.8462 75.9099 32.2507 75.9099 31.5925C75.9099 30.6836 76.1606 29.9001 76.6621 29.2106C77.2889 28.3957 78.1038 28.0196 79.1694 28.0196C79.5455 28.0196 79.9216 28.0509 80.2664 28.1763C80.4858 28.2703 80.7365 28.3643 81.0186 28.4897C81.2693 28.5837 81.3947 28.6464 81.4574 28.6464C81.5201 28.6464 81.5828 28.6151 81.6454 28.4897C81.7081 28.3957 81.7708 28.3643 81.8022 28.3643C81.9275 28.3957 81.9589 28.521 81.9589 28.7404Z" fill="white"/>
<path d="M84.4035 32.4074V33.6298C84.4035 33.8805 84.4662 34.0686 84.5916 34.1626C84.6856 34.2253 84.811 34.288 84.999 34.3193C85.1244 34.382 85.2184 34.4133 85.2184 34.476C85.2184 34.57 85.1557 34.6327 85.093 34.6327C85.0304 34.6327 84.8736 34.6327 84.5916 34.6014C84.3408 34.57 84.1528 34.57 84.0274 34.57C83.8394 34.57 83.6827 34.57 83.4633 34.6014C83.2752 34.6014 83.1498 34.6327 83.0872 34.6327C82.9931 34.6327 82.9305 34.6014 82.9305 34.57C82.9305 34.476 82.9931 34.4133 83.0245 34.382C83.1498 34.3193 83.2439 34.2566 83.2439 34.2566C83.3066 34.1626 83.3692 34.0059 83.3692 33.8178V31.6552C83.3692 31.4985 83.2752 31.3732 83.0872 31.3418C82.8678 31.3105 82.7737 31.2791 82.7737 31.1851C82.7737 31.1224 82.8051 31.0911 82.8678 31.0597C82.8991 31.0284 83.0558 31.0284 83.2439 30.9657C83.5573 30.8717 83.808 30.809 83.9961 30.715C84.1528 30.5896 84.2468 30.5583 84.2468 30.5583C84.3095 30.5583 84.3722 30.621 84.3722 30.7463V31.4672C84.811 30.903 85.1244 30.621 85.3124 30.621C85.4378 30.621 85.5945 30.715 85.7512 30.8717C85.9393 31.0284 86.0333 31.1224 86.0333 31.2165C86.0333 31.4045 85.9706 31.5612 85.8452 31.7179C85.7199 31.906 85.6258 32 85.5632 32C85.5318 32 85.4378 31.9373 85.3124 31.8119C85.1871 31.6866 85.0304 31.6239 84.8423 31.6239C84.5602 31.6552 84.4035 31.906 84.4035 32.4074Z" fill="white"/>
<path d="M86.7855 34.0372V31.6866C86.7855 31.5299 86.6915 31.4045 86.5034 31.3732C86.284 31.3418 86.19 31.3105 86.19 31.2478C86.19 31.1538 86.2213 31.1224 86.3154 31.0911C86.3467 31.0911 86.4721 31.0597 86.6601 30.9971C86.9735 30.903 87.2243 30.8404 87.4123 30.7463C87.569 30.621 87.6631 30.5896 87.6631 30.5896C87.7571 30.5896 87.7884 30.6523 87.7884 30.7777V33.8805C87.7884 34.0686 87.8198 34.1626 87.9451 34.2566C87.9765 34.288 88.0705 34.288 88.2586 34.382C88.3839 34.4133 88.4466 34.476 88.4466 34.5387C88.4466 34.6327 88.3212 34.6641 88.0705 34.6641C87.9765 34.6641 87.8198 34.6641 87.6317 34.6327C87.4123 34.6014 87.287 34.6014 87.1929 34.6014C87.0989 34.6014 87.0049 34.6014 86.8482 34.6327C86.6915 34.6327 86.5661 34.6641 86.5034 34.6641C86.378 34.6641 86.3154 34.6641 86.3154 34.6641C86.2527 34.6641 86.2213 34.6014 86.2213 34.5387C86.2213 34.4447 86.3154 34.4133 86.5034 34.3506C86.7228 34.288 86.7855 34.1626 86.7855 34.0372ZM87.9138 29.1792C87.9138 29.2733 87.8198 29.3986 87.6631 29.5867C87.5064 29.8061 87.381 29.9001 87.287 29.9001C87.1929 29.9001 87.0989 29.8061 86.9422 29.5867C86.7541 29.3986 86.6915 29.2733 86.6915 29.1792C86.6915 29.1166 86.7541 28.9598 86.9422 28.7718C87.0989 28.5837 87.2243 28.4584 87.287 28.4584C87.3496 28.4584 87.475 28.5837 87.6631 28.7718C87.8198 28.9598 87.9138 29.0852 87.9138 29.1792Z" fill="white"/>
<path d="M89.1361 33.7865V28.9912C89.1361 28.8345 89.0735 28.7404 88.9794 28.6778C88.9167 28.6464 88.8227 28.6464 88.666 28.5837C88.5406 28.5837 88.5093 28.5524 88.5093 28.4584C88.5093 28.3957 88.5406 28.3643 88.6347 28.333C88.8227 28.2703 89.0421 28.2076 89.2302 28.1763C89.5122 28.0823 89.7003 27.9882 89.857 27.8942C89.9824 27.8315 90.045 27.8002 90.0764 27.8002C90.1391 27.8002 90.1391 27.8315 90.1391 27.9256C90.1391 27.9256 90.1391 28.0196 90.1391 28.1763C90.1391 28.333 90.1391 28.4584 90.1391 28.5837V33.8492C90.1391 34.0372 90.1704 34.1626 90.2958 34.2879C90.3271 34.3193 90.4525 34.382 90.6092 34.4447C90.7346 34.476 90.7973 34.5387 90.7973 34.57C90.7973 34.664 90.7346 34.6954 90.6092 34.6954C90.5465 34.6954 90.3585 34.6954 90.1077 34.664C89.857 34.6327 89.6689 34.6327 89.5749 34.6327C89.5122 34.6327 89.3555 34.6327 89.1361 34.664C88.9167 34.664 88.7914 34.6954 88.7287 34.6954C88.6347 34.6954 88.572 34.664 88.572 34.6327C88.572 34.5387 88.6033 34.5073 88.6974 34.476C88.8227 34.476 88.9167 34.4133 88.9794 34.3506C89.0735 34.1939 89.1361 34.0372 89.1361 33.7865Z" fill="white"/>
<path d="M91.4868 33.7865V28.9912C91.4868 28.8345 91.4554 28.7404 91.3301 28.6778C91.2987 28.6464 91.2047 28.6464 91.048 28.5837C90.954 28.5837 90.8913 28.5524 90.8913 28.4584C90.8913 28.3957 90.9226 28.3643 91.0166 28.333C91.2047 28.2703 91.4241 28.2076 91.6121 28.1763C91.8942 28.0823 92.0823 27.9882 92.239 27.8942C92.333 27.8315 92.3957 27.8002 92.4584 27.8002C92.4897 27.8002 92.5211 27.8315 92.5211 27.9256C92.5211 27.9256 92.5211 28.0196 92.5211 28.1763C92.4897 28.333 92.4897 28.4584 92.4897 28.5837V33.8492C92.4897 34.0372 92.5524 34.1626 92.6778 34.2879C92.7404 34.3193 92.8345 34.382 92.9912 34.4447C93.0852 34.476 93.1792 34.5387 93.1792 34.57C93.1792 34.664 93.1166 34.6954 92.9912 34.6954C92.9285 34.6954 92.7718 34.6954 92.5211 34.664C92.239 34.6327 92.0509 34.6327 91.9569 34.6327C91.8942 34.6327 91.7375 34.6327 91.5495 34.664C91.3614 34.664 91.2047 34.6954 91.1734 34.6954C91.0793 34.6954 91.0166 34.664 91.0166 34.6327C91.0166 34.5387 91.0793 34.5073 91.1734 34.476C91.2987 34.476 91.3927 34.4133 91.4554 34.3506C91.4554 34.1939 91.4868 34.0372 91.4868 33.7865Z" fill="white"/>
<path d="M94.6836 32.5015C94.6836 32 94.809 31.5925 95.0284 31.2478C95.2165 30.997 95.4045 30.7777 95.7179 30.6209L96.094 30.4016C96.094 30.3702 96.0627 30.2448 96 30.0881C95.9686 29.9001 95.906 29.712 95.906 29.4926C95.906 29.0539 96.0627 28.7091 96.3448 28.427C96.6268 28.1763 97.0029 28.0509 97.4417 28.0509C97.6611 28.0509 97.9432 28.0823 98.2566 28.239C98.6014 28.333 98.7581 28.3957 98.7581 28.3957C98.7894 28.3957 98.8521 28.3643 98.8834 28.3017C98.9775 28.2703 98.9775 28.2703 99.0715 28.2703C99.1342 28.2703 99.1655 28.3017 99.1655 28.427C99.1655 28.6464 99.2282 29.0852 99.2909 29.8374C99.2909 29.9628 99.2595 30.0255 99.1655 30.0255C99.1028 30.0255 99.0401 29.9314 98.9775 29.7747C98.8521 29.3673 98.664 29.0539 98.4133 28.8031C98.1312 28.521 97.8178 28.3643 97.4417 28.3643C97.0029 28.3643 96.7835 28.6151 96.7835 29.0539C96.7835 29.43 97.0656 29.9941 97.5984 30.6209C98.0372 31.1538 98.5073 31.6866 99.1342 32.2194C99.667 32.6895 100.012 32.9402 100.106 32.9402C100.137 32.9402 100.2 32.8462 100.294 32.6582C100.388 32.4388 100.451 32.2194 100.451 32C100.451 31.6552 100.357 31.4358 100.168 31.2791C100.074 31.2164 99.9177 31.1538 99.667 31.1224C99.4789 31.0911 99.3849 31.0284 99.3849 30.9657C99.3849 30.8717 99.4476 30.8403 99.573 30.8403C99.573 30.8403 99.6983 30.8403 99.8864 30.8717C100.074 30.8717 100.294 30.8717 100.513 30.8717C100.701 30.8717 100.889 30.8717 101.015 30.8717C101.171 30.8403 101.265 30.8403 101.297 30.8403C101.391 30.8403 101.453 30.8717 101.453 30.9657C101.453 31.0284 101.391 31.0911 101.265 31.1224C101.14 31.1851 101.109 31.2478 101.077 31.3732C101.015 31.7806 100.921 32.094 100.827 32.4388C100.764 32.6268 100.701 32.8462 100.607 33.0029L100.482 33.191C100.482 33.3477 100.67 33.5357 101.015 33.7551C101.328 33.9745 101.579 34.0372 101.736 34.0372C101.861 34.0372 101.986 34.0059 102.049 33.9745C102.112 33.9745 102.174 33.9432 102.206 33.9432C102.3 33.9432 102.331 33.9745 102.331 34.0685C102.331 34.1312 102.237 34.2566 102.018 34.4133C101.767 34.6014 101.516 34.664 101.203 34.664C100.795 34.664 100.262 34.4133 99.6983 33.9432C99.4163 34.1939 99.0715 34.3506 98.6327 34.5073C98.2566 34.6014 97.8492 34.664 97.4417 34.664C96.5015 34.664 95.8119 34.382 95.2791 33.8492C94.8717 33.4731 94.6836 33.0029 94.6836 32.5015ZM98.1939 34.1626C98.382 34.1626 98.6327 34.1312 98.9148 34.0685C99.1969 33.9745 99.3222 33.8805 99.3222 33.8178C99.3222 33.7865 99.1342 33.5984 98.7581 33.285C98.2253 32.8776 97.8178 32.5328 97.5357 32.2507C97.0343 31.8119 96.6582 31.3418 96.4388 30.9344C96.3448 30.7463 96.2507 30.6523 96.188 30.6523C96.0627 30.6523 95.906 30.7463 95.7806 30.8717C95.5926 31.0911 95.4985 31.3105 95.4985 31.6239C95.4985 32.188 95.7806 32.7208 96.3134 33.2537C96.9089 33.8805 97.5357 34.1626 98.1939 34.1626Z" fill="white"/>
<path d="M103.867 34.0059L103.585 32.7835C103.553 32.6582 103.553 32.5641 103.553 32.5328C103.553 32.4388 103.616 32.3447 103.71 32.3447C103.804 32.3447 103.898 32.4388 103.898 32.5641C104.274 33.6924 104.901 34.2566 105.779 34.2566C106.155 34.2566 106.468 34.1626 106.688 33.9745C106.907 33.7551 107.032 33.4731 107.032 33.097C107.032 32.7522 106.876 32.5015 106.531 32.2821C106.437 32.2507 105.935 31.9686 104.964 31.5612C104.525 31.3732 104.212 31.1538 104.024 30.9657C103.773 30.715 103.647 30.3389 103.647 29.9001C103.647 29.3673 103.804 28.9285 104.118 28.5837C104.462 28.239 104.901 28.0509 105.434 28.0509C105.716 28.0509 106.029 28.0823 106.311 28.239C106.594 28.3643 106.782 28.427 106.844 28.427C106.876 28.427 106.97 28.3957 107.064 28.3643C107.189 28.3017 107.252 28.3017 107.283 28.3017C107.346 28.3017 107.377 28.333 107.408 28.3957C107.408 28.4897 107.44 28.5837 107.44 28.6464L107.534 29.9001C107.534 30.1195 107.502 30.2135 107.314 30.2135C107.283 30.2135 107.22 30.0568 107.095 29.7434C106.938 29.3986 106.782 29.1165 106.562 28.9285C106.249 28.6151 105.873 28.4897 105.434 28.4897C105.12 28.4897 104.87 28.5837 104.713 28.7404C104.525 28.8971 104.431 29.1479 104.431 29.4613C104.431 29.712 104.556 29.9314 104.838 30.1195C104.932 30.1822 105.371 30.3702 106.155 30.715C106.719 30.9657 107.095 31.2164 107.346 31.4358C107.628 31.7493 107.753 32.1567 107.753 32.7208C107.753 33.3163 107.565 33.8178 107.189 34.1626C106.813 34.5387 106.311 34.7267 105.716 34.7267C105.465 34.7267 105.214 34.6954 104.901 34.6014C104.65 34.5387 104.4 34.4446 104.149 34.382C104.055 34.3506 103.992 34.3193 103.929 34.2879C103.929 34.2253 103.898 34.1312 103.867 34.0059Z" fill="white"/>
<path d="M111.357 32V33.5984C111.357 33.8492 111.389 34.0059 111.389 34.0686C111.42 34.1312 111.483 34.1626 111.608 34.1626C111.64 34.1626 111.702 34.1626 111.765 34.1312C111.859 34.1312 111.89 34.1312 111.89 34.1312C111.953 34.1312 111.984 34.1312 111.984 34.2253C111.984 34.3193 111.89 34.4133 111.671 34.5387C111.452 34.6641 111.263 34.7267 111.107 34.7267C110.793 34.7267 110.574 34.5387 110.511 34.1626C110.041 34.5387 109.571 34.7267 109.07 34.7267C108.787 34.7267 108.631 34.6641 108.443 34.476C108.286 34.3193 108.192 34.1312 108.192 33.8805C108.192 33.379 108.443 33.0029 108.913 32.7835C109.101 32.6895 109.571 32.5328 110.355 32.3448C110.355 31.906 110.323 31.5612 110.229 31.3732C110.135 31.1224 109.884 30.9971 109.571 30.9971C109.383 30.9971 109.258 31.0597 109.226 31.1538C109.164 31.2165 109.164 31.3418 109.164 31.5299C109.164 31.8119 108.944 31.9687 108.505 31.9687C108.349 31.9687 108.286 31.906 108.286 31.7806C108.286 31.4045 108.474 31.1538 108.881 30.9657C109.195 30.809 109.54 30.715 109.978 30.715C110.919 30.6523 111.357 31.1224 111.357 32ZM110.386 33.8492V32.9716C110.386 32.7835 110.386 32.6895 110.386 32.6895C110.386 32.6582 110.355 32.6268 110.323 32.6268C110.104 32.6268 109.853 32.6895 109.634 32.8462C109.352 33.0343 109.226 33.285 109.226 33.5357C109.226 33.9432 109.383 34.1626 109.696 34.1626C109.822 34.1626 109.978 34.1312 110.072 34.0999C110.292 34.0372 110.386 33.9432 110.386 33.8492Z" fill="white"/>
<path d="M112.674 33.7865V28.9912C112.674 28.8345 112.611 28.7404 112.517 28.6778C112.486 28.6464 112.392 28.6464 112.235 28.5837C112.141 28.5837 112.078 28.5524 112.078 28.4584C112.078 28.3957 112.11 28.3643 112.235 28.333C112.423 28.2703 112.611 28.2076 112.831 28.1763C113.113 28.0823 113.301 27.9882 113.457 27.8942C113.551 27.8315 113.614 27.8002 113.645 27.8002C113.677 27.8002 113.708 27.8315 113.708 27.9256C113.708 27.9256 113.708 28.0196 113.708 28.1763C113.708 28.333 113.708 28.4584 113.708 28.5837V33.8492C113.708 34.0372 113.739 34.1626 113.865 34.2879C113.928 34.3193 114.053 34.382 114.178 34.4447C114.304 34.476 114.366 34.5387 114.366 34.57C114.366 34.664 114.304 34.6954 114.178 34.6954C114.116 34.6954 113.928 34.6954 113.677 34.664C113.395 34.6327 113.238 34.6327 113.144 34.6327C113.081 34.6327 112.925 34.6327 112.737 34.664C112.548 34.664 112.392 34.6954 112.329 34.6954C112.235 34.6954 112.172 34.664 112.172 34.6327C112.172 34.5387 112.204 34.5073 112.298 34.476C112.423 34.476 112.517 34.4133 112.58 34.3506C112.611 34.1939 112.674 34.0372 112.674 33.7865Z" fill="white"/>
<path d="M117.626 32V33.5984C117.626 33.8492 117.626 34.0059 117.657 34.0686C117.689 34.1312 117.751 34.1626 117.845 34.1626C117.908 34.1626 117.939 34.1626 118.002 34.1312C118.065 34.1312 118.127 34.1312 118.159 34.1312C118.221 34.1312 118.253 34.1312 118.253 34.2253C118.253 34.3193 118.159 34.4133 117.939 34.5387C117.72 34.6641 117.532 34.7267 117.344 34.7267C117.03 34.7267 116.842 34.5387 116.78 34.1626C116.31 34.5387 115.839 34.7267 115.338 34.7267C115.087 34.7267 114.899 34.6641 114.711 34.476C114.554 34.3193 114.46 34.1312 114.46 33.8805C114.46 33.379 114.711 33.0029 115.15 32.7835C115.369 32.6895 115.808 32.5328 116.623 32.3448C116.623 31.906 116.592 31.5612 116.498 31.3732C116.372 31.1224 116.153 30.9971 115.839 30.9971C115.62 30.9971 115.495 31.0597 115.463 31.1538C115.432 31.2165 115.432 31.3418 115.432 31.5299C115.432 31.8119 115.181 31.9687 114.774 31.9687C114.617 31.9687 114.554 31.906 114.554 31.7806C114.554 31.4045 114.742 31.1538 115.15 30.9657C115.463 30.809 115.839 30.715 116.247 30.715C117.187 30.6523 117.626 31.1224 117.626 32ZM116.654 33.8492V32.9716C116.654 32.7835 116.654 32.6895 116.654 32.6895C116.623 32.6582 116.623 32.6268 116.592 32.6268C116.372 32.6268 116.121 32.6895 115.902 32.8462C115.62 33.0343 115.495 33.285 115.495 33.5357C115.495 33.9432 115.651 34.1626 115.996 34.1626C116.153 34.1626 116.278 34.1312 116.404 34.0999C116.56 34.0372 116.654 33.9432 116.654 33.8492Z" fill="white"/>
<path d="M121.073 30.903V29.0539C121.073 28.8658 121.011 28.7404 120.917 28.6778C120.885 28.6778 120.791 28.6464 120.603 28.6151C120.509 28.6151 120.447 28.5524 120.447 28.4584C120.447 28.3957 120.572 28.3017 120.791 28.239C121.167 28.1763 121.512 28.0196 121.826 27.8629C121.888 27.8002 121.951 27.8002 121.982 27.8002C122.045 27.8002 122.045 27.8629 122.045 28.0509V33.6298C122.045 33.8492 122.108 34.0059 122.202 34.0685C122.264 34.1312 122.358 34.1312 122.515 34.1626C122.609 34.1626 122.641 34.1939 122.641 34.2879C122.641 34.3506 122.515 34.4133 122.264 34.476C121.857 34.57 121.606 34.6014 121.544 34.6327C121.324 34.7267 121.199 34.7267 121.167 34.7267C121.105 34.7267 121.073 34.6954 121.073 34.6014C121.073 34.5387 121.042 34.3506 121.042 34.1312C120.635 34.5387 120.227 34.7267 119.757 34.7267C119.287 34.7267 118.911 34.5387 118.66 34.1626C118.441 33.8492 118.315 33.4731 118.315 32.9402C118.315 32.7209 118.315 32.5328 118.378 32.3761C118.503 31.906 118.691 31.4985 119.005 31.2164C119.35 30.8717 119.726 30.6836 120.196 30.6836C120.635 30.6523 120.917 30.7463 121.073 30.903ZM121.073 33.4417V31.5925C120.823 31.1851 120.478 30.9971 120.071 30.9971C119.757 30.9971 119.506 31.1538 119.35 31.4672C119.224 31.7179 119.162 32.0313 119.162 32.3761C119.162 32.7522 119.256 33.097 119.444 33.4417C119.663 33.8492 119.945 34.0999 120.321 34.0999C120.603 34.0999 120.791 34.0059 120.948 33.8805C121.042 33.8178 121.073 33.6611 121.073 33.4417Z" fill="white"/>
<path d="M33.379 17.2067C33.0656 17.6768 32.6582 18.6484 32.0313 20.0274C31.8433 20.5289 31.5299 20.811 31.1224 20.811C30.6523 20.811 30.3389 20.4975 30.2135 19.9021C29.8688 18.3976 29.3359 17.0499 28.6151 15.8903C28.2076 17.426 27.6748 18.9618 27.048 20.4662C26.3271 22.19 25.4809 23.6004 24.5093 24.6973C23.5377 25.857 22.284 26.3898 20.8423 26.3898C19.9021 26.3898 19.0872 26.0764 18.4603 25.4182C17.7081 24.6973 17.3634 23.7258 17.3634 22.5974C17.3634 21.6259 17.6454 20.7483 18.1783 20.0588C18.7424 19.3692 19.4319 19.0245 20.2155 19.0245C20.4976 19.0245 20.6856 19.0558 20.7796 19.1185C20.8737 19.2125 20.9677 19.4006 21.0617 19.6513C21.2811 20.2782 21.6572 20.5916 22.2214 20.5916C22.8168 20.5916 23.4123 20.2468 24.0392 19.5573C24.478 19.0872 24.8541 18.429 25.1988 17.6768C25.5436 16.8619 26.0137 15.6082 26.6405 13.7904C26.2331 13.5397 25.8257 13.383 25.4809 13.383C25.1675 13.383 24.9167 13.5083 24.6974 13.6964C24.5093 13.8844 24.3839 14.1665 24.3839 14.4799C24.3839 14.6366 24.4153 14.856 24.5093 15.2008C24.5093 15.2948 24.5406 15.3261 24.5406 15.4202C24.5406 15.8276 24.2272 16.047 23.6004 16.047C23.0362 16.047 22.5975 15.7963 22.2214 15.3261C21.8452 14.856 21.6885 14.3232 21.6885 13.6023C21.6885 12.5681 22.0646 11.7218 22.8168 11.0323C23.4123 10.4995 24.1019 10.2174 24.9167 10.2174C25.763 10.2174 26.6092 10.5308 27.4241 11.1263L28.3957 7.36532C28.6464 6.39373 28.7718 5.64152 28.7718 5.10871C28.7718 4.60724 28.7091 4.1998 28.5211 3.85504C28.333 3.51028 28.0196 3.10284 27.5495 2.63271C27.1107 2.19392 26.9226 1.81782 26.9226 1.53574C26.9226 1.25367 26.9853 1.03428 27.1734 0.846224C27.3614 0.658173 27.5808 0.564148 27.8315 0.564148C28.0196 0.564148 28.3017 0.658173 28.7718 0.814882C30.0881 1.28501 31.1224 1.56709 31.8746 1.56709C32.6582 1.56709 33.6298 1.31635 34.8521 0.846224C35.3222 0.658173 35.667 0.564148 35.9177 0.564148C36.5132 0.564148 36.7953 0.846224 36.7953 1.44172C36.7953 1.75514 36.5759 2.0999 36.1685 2.44466C35.3849 3.13418 35.0088 3.98041 35.0088 4.82664C35.0088 5.20274 35.0715 5.70421 35.2595 6.39373L39.0206 20.5289C39.3026 21.5005 39.5847 22.2213 39.8981 22.7228C40.2116 23.1929 40.619 23.6004 41.1832 23.9138C41.5279 24.1332 41.716 24.2586 41.8413 24.3839C41.9354 24.5093 41.9667 24.666 41.9667 24.8854C41.9667 25.4182 41.5279 25.7003 40.6503 25.7003H34.3506C33.6925 25.7003 33.3477 25.4809 33.3477 25.0108C33.3477 24.7287 33.5357 24.4466 33.9118 24.1959C34.476 23.8511 34.7267 23.4437 34.7267 22.9422C34.7267 22.6601 34.6641 22.19 34.5073 21.5318L33.379 17.2067ZM30.809 7.42801L29.3673 13.2262C30.1195 14.2605 30.7777 15.6082 31.2791 17.2067C31.6239 16.3918 32.094 15.5142 32.6895 14.5739L30.809 7.42801Z" fill="white"/>
<path d="M51.3066 0C52.3095 0 53.6572 0.376102 55.3497 1.06562C56.3526 1.50441 57.0735 1.7238 57.5436 1.7238C57.7316 1.7238 58.0451 1.66112 58.4838 1.53575C58.5779 1.53575 58.6719 1.53575 58.7659 1.53575C58.9853 1.53575 59.1734 1.59843 59.3301 1.81783C59.4868 2.00588 59.5808 2.22527 59.5808 2.476C59.5808 2.85211 59.2674 3.32223 58.6406 3.88639C57.5749 4.82664 56.76 5.95495 56.2272 7.23996C55.9452 7.8668 55.6004 8.18022 55.193 8.18022C54.8168 8.18022 54.5348 7.89814 54.3154 7.33399C53.6572 5.51616 52.6229 4.57591 51.3066 4.57591C50.617 4.57591 50.1156 4.7953 49.6454 5.26543C49.2067 5.70421 48.9873 6.26836 48.9873 6.95788C48.9873 7.67875 49.2693 8.2429 49.8335 8.68168C50.3976 9.08913 51.714 9.62194 53.6572 10.2488C55.475 10.8756 56.7914 11.5338 57.669 12.192C59.5808 13.6964 60.5211 15.7649 60.5211 18.335C60.5211 20.6856 59.6748 22.5975 57.9824 24.1332C56.2899 25.6376 54.096 26.3898 51.4633 26.3898C48.9559 26.3898 46.856 25.7943 45.0695 24.572C44.2547 24.0078 43.6278 23.3183 43.1577 22.4407C42.6876 21.5632 42.4682 20.6543 42.4682 19.6827C42.4682 18.3976 42.8443 17.332 43.5965 16.4545C44.4114 15.4829 45.477 15.0127 46.7307 15.0127C48.0784 15.0127 49.2693 15.5455 50.2409 16.6425C50.5544 16.9559 50.8051 17.332 51.0245 17.7395C51.2439 18.1783 51.3379 18.5544 51.3379 18.8364C51.3379 19.0558 51.2752 19.2125 51.1499 19.3692C51.0558 19.526 50.8991 19.5886 50.7424 19.5886C50.5857 19.5886 50.3976 19.4946 50.1156 19.2125C49.4887 18.6484 48.9246 18.3663 48.4231 18.3663C47.953 18.3663 47.5455 18.5544 47.2321 18.8991C46.95 19.2125 46.762 19.6827 46.762 20.2468C46.762 21.0304 47.0754 21.7199 47.6709 22.284C48.5485 23.1303 49.6454 23.569 50.9931 23.569C52.3722 23.569 53.5632 23.0676 54.4407 22.096C55.2556 21.2498 55.6317 20.2155 55.6317 19.0558C55.6317 17.5514 54.9736 16.3918 53.6572 15.5769C52.8737 15.1381 51.5886 14.6053 49.7708 14.0411C48.5171 13.6337 47.6082 13.3203 47.0441 13.0069C46.4799 12.6934 45.9471 12.286 45.4143 11.7218C44.3487 10.5935 43.7845 9.15181 43.7845 7.36533C43.7845 5.26543 44.5054 3.54163 45.9471 2.16259C47.4515 0.720862 49.2067 0 51.3066 0Z" fill="white"/>
<path d="M70.049 14.8247V19.9647C70.049 21.5318 70.143 22.5348 70.2997 23.0049C70.4878 23.475 70.9579 23.8825 71.7101 24.2586C72.1489 24.478 72.3369 24.6973 72.3369 25.0421C72.3369 25.5436 72.0235 25.763 71.3653 25.763H64.094C63.4672 25.763 63.1538 25.5122 63.1538 25.0421C63.1538 24.8541 63.2164 24.6973 63.3105 24.572C63.4045 24.478 63.6552 24.3212 64.0627 24.1332C64.6895 23.8198 65.0656 23.4437 65.2223 22.9736C65.3477 22.4721 65.4731 21.4691 65.4731 19.9647V8.49363C65.4731 6.26836 65.379 4.82664 65.191 4.16846C65.0029 3.51028 64.5642 2.88344 63.8119 2.31929C63.3418 1.94319 63.0911 1.59843 63.0911 1.28501C63.0911 1.1283 63.1538 0.94025 63.2791 0.814883C63.4045 0.658174 63.5299 0.59549 63.6866 0.59549C63.7806 0.59549 64.0313 0.658174 64.4074 0.814883C65.5984 1.28501 66.6954 1.53574 67.667 1.53574C68.764 1.53574 69.8923 1.25367 71.0519 0.658174C71.24 0.564148 71.3967 0.532806 71.522 0.532806C71.7414 0.532806 71.8981 0.626832 72.0548 0.752199C72.1802 0.877566 72.2429 1.06562 72.2429 1.28501C72.2429 1.59843 71.9922 1.94319 71.4594 2.38197C70.8325 2.88344 70.4251 3.41625 70.2684 4.07443C70.1117 4.66993 70.0176 6.17433 70.0176 8.55631V12.5994L76.474 10.1547V8.52497C76.474 6.2997 76.4114 4.85798 76.2233 4.1998C76.0353 3.54162 75.5965 2.91478 74.8443 2.35063C74.3741 1.97453 74.0921 1.62977 74.0921 1.31635C74.0921 1.15964 74.1547 0.971592 74.3115 0.846225C74.4055 0.689515 74.5622 0.626832 74.7189 0.626832C74.8443 0.626832 75.0637 0.689515 75.4084 0.846225C76.5994 1.31635 77.6964 1.56709 78.668 1.56709C79.7963 1.56709 80.9246 1.28501 82.0529 0.689515C82.2409 0.59549 82.3976 0.564148 82.523 0.564148C82.7424 0.564148 82.8991 0.658174 83.0245 0.783541C83.1498 0.908908 83.2439 1.09696 83.2439 1.31635C83.2439 1.62977 82.9618 1.97453 82.4603 2.41332C81.8022 2.91478 81.4261 3.4476 81.238 4.10577C81.1126 4.70127 81.0499 6.20568 81.0186 8.58765V20.0274C81.0186 21.5945 81.1126 22.5974 81.2693 23.0676C81.4574 23.5377 81.9275 23.9451 82.6797 24.3212C83.0872 24.5406 83.3066 24.76 83.3066 25.1048C83.3066 25.6063 82.9931 25.8257 82.3976 25.8257H75.095C74.4682 25.8257 74.1547 25.5749 74.1547 25.1048C74.1547 24.9167 74.1861 24.76 74.3115 24.6347C74.4055 24.5406 74.6562 24.3839 75.0637 24.1959C75.6905 23.8825 76.0353 23.5064 76.2233 23.0362C76.38 22.5348 76.474 21.5318 76.474 20.0274V12.3487L70.049 14.8247Z" fill="white"/>
<path d="M111.169 11.9099C112.298 11.8785 112.987 11.095 113.301 9.55925C113.457 8.93242 113.583 8.49363 113.708 8.33692C113.833 8.14887 113.99 8.02351 114.241 8.02351C114.648 8.02351 114.836 8.49363 114.868 9.43389C114.899 10.7502 114.962 11.8159 115.15 12.5681C115.338 13.3516 115.714 14.5739 116.404 16.2664C116.529 16.5485 116.592 16.7679 116.592 16.9559C116.592 17.4574 116.372 17.7395 115.933 17.7395C115.683 17.7395 115.463 17.5514 115.213 17.2067C114.648 16.3291 114.241 15.7649 113.99 15.4829C113.708 15.1694 113.426 14.9187 113.05 14.6993C112.548 14.4172 111.953 14.2605 111.201 14.2605V17.332C111.201 18.8991 111.389 20.0901 111.828 20.8736C112.423 21.9706 113.551 22.5034 115.181 22.5034C117.469 22.5034 118.942 21.2184 119.538 18.6484C119.663 18.0842 119.788 17.6768 119.914 17.4887C120.008 17.3007 120.196 17.2067 120.415 17.2067C120.635 17.2067 120.823 17.332 120.917 17.5514C121.011 17.7708 121.105 18.2409 121.199 18.9618C121.45 20.999 122.108 22.6915 123.205 24.0078C123.706 24.6033 123.926 25.0421 123.926 25.3242C123.926 25.5436 123.863 25.7316 123.738 25.8883C123.612 26.045 123.424 26.1391 123.236 26.1391C123.142 26.1391 123.017 26.1077 122.891 26.045C122.264 25.857 121.669 25.763 121.042 25.763H105.246C104.619 25.763 104.306 25.5122 104.306 25.0421C104.306 24.8541 104.368 24.6974 104.462 24.572C104.556 24.478 104.807 24.3213 105.183 24.1332C105.841 23.8198 106.217 23.4123 106.374 22.9109C106.5 22.4094 106.562 21.2184 106.562 19.3379V8.90108C106.562 7.80411 106.468 7.05191 106.249 6.61312C106.061 6.17434 105.622 5.89226 104.964 5.67287C104.588 5.5475 104.431 5.32811 104.431 5.01469C104.431 4.29383 105.214 3.32223 106.813 2.0999C107.659 1.44172 108.662 0.940255 109.79 0.564153C110.919 0.188051 112.078 0 113.238 0C114.241 0 115.087 0.0940255 115.777 0.313418C116.498 0.501469 117.563 0.971596 119.005 1.69246C119.632 2.00588 120.133 2.16259 120.572 2.16259C120.948 2.16259 121.324 2.00588 121.669 1.78648C121.857 1.66112 122.014 1.59843 122.108 1.59843C122.39 1.59843 122.609 1.88051 122.797 2.41332C123.017 2.97747 123.111 3.60431 123.111 4.26249C123.111 5.73555 122.609 6.95788 121.575 7.89814C120.729 8.71303 119.726 9.12047 118.566 9.12047C117.595 9.12047 116.811 8.80705 116.247 8.14887C115.808 7.67875 115.62 7.14593 115.62 6.61312C115.62 6.23702 115.745 6.04897 115.996 6.04897C116.059 6.04897 116.153 6.08031 116.341 6.143C116.466 6.17434 116.56 6.20568 116.717 6.20568C117.03 6.20568 117.281 6.08031 117.438 5.82958C117.626 5.57884 117.72 5.26543 117.72 4.88932C117.72 4.26249 117.438 3.69833 116.905 3.25955C116.372 2.82076 115.714 2.60137 114.93 2.60137C114.147 2.60137 113.489 2.82076 112.893 3.29089C112.329 3.76102 111.89 4.38785 111.608 5.20274C111.295 6.20568 111.138 7.80411 111.138 10.0294V11.9099H111.169Z" fill="white"/>
<path d="M100.858 25.7316H86.9736C86.3467 25.7316 86.0646 25.4809 86.0646 25.0108C86.0646 24.8227 86.096 24.666 86.2214 24.5406C86.3154 24.4466 86.5661 24.2899 86.9736 24.1019C87.5691 23.7884 87.9765 23.4123 88.1332 22.9422C88.2899 22.4407 88.3839 21.4378 88.3839 19.9334V8.49363C88.3839 6.26836 88.2899 4.82664 88.1332 4.16846C87.9765 3.51028 87.5064 2.88344 86.7542 2.31929C86.284 1.94319 86.0333 1.59843 86.0333 1.28501C86.0333 1.1283 86.096 0.94025 86.2214 0.814883C86.3467 0.658174 86.4721 0.59549 86.6288 0.59549C86.7542 0.59549 87.0049 0.658174 87.3497 0.814883C88.5093 1.28501 89.6063 1.53574 90.5779 1.53574C91.5808 1.53574 92.7718 1.25367 94.2449 0.658174C94.4329 0.564148 94.5896 0.532806 94.7463 0.532806C94.9344 0.532806 95.1224 0.626832 95.2478 0.783541C95.3732 0.94025 95.4672 1.09696 95.4672 1.31635C95.4672 1.5044 95.4045 1.66111 95.3105 1.78648C95.1851 1.8805 94.9344 2.0999 94.4643 2.38197C93.7747 2.8521 93.3359 3.38491 93.1792 4.01175C93.0225 4.63858 92.9285 6.04897 92.9285 8.27424V17.332C92.9285 18.7111 93.0539 19.7767 93.3046 20.4662C93.5553 21.093 93.9628 21.5945 94.5269 21.9706C95.0911 22.3781 95.6866 22.5348 96.4075 22.5348C97.4731 22.5348 98.3506 22.096 99.0088 21.2184C99.6983 20.2782 100.012 19.2125 100.012 17.9902C100.012 17.144 99.8237 16.2351 99.4163 15.2635C99.2596 14.856 99.1655 14.5426 99.1655 14.3545C99.1655 14.1038 99.2282 13.9158 99.3849 13.7904C99.5416 13.665 99.6983 13.571 99.9491 13.571C100.482 13.571 101.077 14.0098 101.642 14.8874C102.362 16.047 102.77 17.4574 102.77 19.1498C102.77 19.4006 102.77 19.9647 102.707 20.811C102.707 21.0304 102.707 21.2184 102.707 21.3124C102.707 21.9079 102.77 22.4094 102.927 22.8168C103.052 23.1929 103.365 23.7571 103.804 24.4466C103.929 24.6347 103.992 24.8227 103.992 25.0421C103.992 25.3242 103.898 25.5749 103.71 25.763C103.522 25.9824 103.303 26.045 103.021 26.045C102.895 26.045 102.707 26.0137 102.488 25.951C102.112 25.857 101.579 25.763 100.858 25.7316Z" fill="white"/>
<path d="M131.792 14.3232L126.746 4.85798C126.214 3.8237 125.493 3.00881 124.709 2.41332C124.302 2.13124 124.02 1.88051 123.894 1.7238C123.769 1.56709 123.706 1.37904 123.706 1.19099C123.706 1.00294 123.769 0.846229 123.894 0.720862C124.02 0.595494 124.176 0.501469 124.364 0.501469C124.521 0.501469 124.834 0.658178 125.399 0.940254C126.245 1.37904 127.185 1.59843 128.251 1.59843C129.254 1.59843 130.225 1.3477 131.134 0.908913C131.667 0.658178 132.012 0.532811 132.168 0.532811C132.357 0.532811 132.482 0.626836 132.639 0.752204C132.733 0.877571 132.827 1.06562 132.827 1.28501C132.827 1.47307 132.795 1.66112 132.701 1.75514C132.639 1.84917 132.388 2.0999 131.949 2.41332C131.667 2.66405 131.542 2.97747 131.542 3.38492C131.542 3.8237 131.636 4.1998 131.855 4.57591L135.647 11.6592C135.992 10.9696 136.274 10.4682 136.494 10.1861C136.713 9.90402 137.089 9.43389 137.653 8.77571C138.311 7.99216 138.782 7.39667 139.032 6.98923C139.252 6.58178 139.346 6.17434 139.346 5.79824C139.346 5.39079 139.252 5.04603 139.032 4.7953C138.813 4.51322 138.531 4.38785 138.217 4.38785C137.685 4.38785 137.246 4.7953 136.932 5.64153C136.776 5.98629 136.588 6.17434 136.368 6.17434C136.055 6.17434 135.773 5.9236 135.522 5.45348C135.271 4.95201 135.146 4.4192 135.146 3.85504C135.146 2.85211 135.428 2.00588 136.086 1.28501C136.807 0.438785 137.747 0.0313416 138.938 0.0313416C140.098 0.0313416 141.07 0.438785 141.822 1.28501C142.574 2.13124 142.919 3.16552 142.919 4.45054C142.919 5.5475 142.668 6.5191 142.104 7.42801C141.79 7.96082 141.07 8.77571 139.973 9.87267C138.5 11.3771 137.559 12.6621 137.089 13.6964C136.619 14.7307 136.4 16.1724 136.4 18.0215V19.9647C136.4 21.5318 136.525 22.5348 136.682 22.9736C136.87 23.4437 137.34 23.8511 138.061 24.2272C138.5 24.4466 138.719 24.666 138.719 25.0108C138.719 25.5122 138.405 25.7316 137.779 25.7316H130.445C129.849 25.7316 129.536 25.4809 129.536 25.0108C129.536 24.8227 129.567 24.666 129.661 24.5406C129.755 24.4466 130.006 24.2899 130.413 24.1019C131.04 23.7884 131.385 23.4123 131.542 22.9422C131.698 22.4407 131.792 21.4378 131.792 19.9334V14.3232Z" fill="white"/>
<path d="M15.6082 13.5083C15.0127 11.9099 13.1009 10.1861 11.7532 9.46522C11.6905 9.46522 11.6278 9.40254 11.5965 9.3712C11.5338 9.30851 11.5024 9.24583 11.4711 9.12046C11.4711 9.05778 11.4711 8.9951 11.5024 8.96375V8.93241C11.5024 8.90107 11.5651 8.83839 11.5965 8.7757C11.8472 8.43094 12.2233 8.18021 12.6308 8.08618C13.1322 7.89813 13.5397 8.14887 13.6024 8.36826C13.7277 8.74436 13.6024 9.1518 13.2889 9.55925C13.2262 9.59059 13.2262 9.65327 13.2262 9.71596C13.2262 9.84133 13.3516 9.96669 13.477 9.96669C13.571 9.96669 13.6337 9.90401 13.6964 9.87267C14.0411 9.3712 14.2605 8.83839 14.0411 8.18021C13.8531 7.67874 13.1009 7.39666 12.4427 7.58471C11.9726 7.74142 11.5965 8.05484 11.3771 8.30558C11.3771 8.30558 11.189 8.55631 11.095 8.71302C11.0323 8.80704 10.9383 8.90107 10.7816 8.90107C10.7816 8.90107 10.7502 8.90107 10.7189 8.90107C10.6249 8.90107 10.5309 8.86973 10.4368 8.80704L9.80999 8.52497C9.68462 8.49363 9.62194 8.3996 9.62194 8.27423C9.62194 8.21155 9.62194 8.14887 9.68462 8.08618V8.05484C9.71596 8.05484 9.71596 8.0235 9.71596 8.0235C10.3741 7.42801 11.2517 6.39373 10.8129 5.23408C10.4995 4.38785 9.68462 3.76101 9.02644 3.51028C8.83839 3.41625 8.68168 3.41625 8.619 3.51028C8.55632 3.57296 8.52497 3.66699 8.58766 3.91772C8.58766 3.9804 8.58766 4.01175 8.58766 4.04309C8.58766 4.13711 8.58766 4.23114 8.55632 4.29382V4.32516C8.52497 4.45053 8.43095 4.60724 8.30558 4.63858C8.21156 4.66992 8.05485 4.66992 7.89814 4.48187C7.6474 4.23114 7.14593 3.76101 6.95788 3.63564C6.70715 3.51028 6.23702 3.38491 6.01763 3.72967C5.82958 4.07443 5.98629 4.41919 6.29971 4.60724C6.5191 4.76395 7.11459 4.88932 7.42801 4.98334H7.45935C7.52204 4.98334 7.55338 5.01468 7.61606 5.04603C7.71009 5.10871 7.77277 5.20274 7.80411 5.26542C7.83545 5.3281 7.83545 5.35944 7.83545 5.45347C7.83545 5.5475 7.77277 5.64152 7.61606 5.70421H7.58472C7.39667 5.76689 7.2713 5.82957 7.2713 5.95494C7.2713 6.01762 7.30264 6.01762 7.33398 6.04896V5.95494C7.36533 5.98628 7.42801 6.01762 7.49069 6.08031C7.8668 6.23702 8.30558 6.58178 8.49363 7.11459C8.65034 7.52203 8.58766 8.0235 8.18021 8.14887C7.89814 8.24289 7.42801 8.05484 6.8952 7.58471C6.45641 7.30264 6.143 6.95788 5.70421 6.48775C5.35945 6.01762 4.98335 5.57884 4.32517 5.45347L4.29383 5.42213C4.07444 5.39079 3.85504 5.35944 3.60431 5.35944C3.16552 5.35944 2.75808 5.42213 2.41332 5.5475H2.44466C2.25661 5.61018 2.16258 5.7042 2.13124 5.79823C2.03722 5.98628 2.13124 6.23702 2.28795 6.36238C2.44466 6.48775 2.50734 6.64446 2.53869 6.76983V6.80117C2.53869 6.89519 2.53869 6.98922 2.50734 7.08325C2.44466 7.20861 2.31929 7.33398 2.13124 7.33398C2.0999 7.33398 2.06856 7.33398 2.03722 7.33398C1.56709 7.33398 1.09696 7.49069 0.72086 7.71008C0.501468 7.71008 0.313417 7.89813 0.313417 7.89813C0.0313402 8.14887 -0.0626852 8.52497 0.0940239 8.74436C0.188049 8.86973 0.344758 8.93241 0.532809 8.90107C0.532809 8.90107 0.626835 8.90107 0.689519 8.86973C0.971595 8.7757 1.1283 8.65034 1.28501 8.58765C1.31635 8.58765 1.41038 8.52497 1.44172 8.52497C1.44172 8.52497 1.50441 8.49363 1.59843 8.46229C1.81782 8.43094 2.00588 8.65034 2.03722 8.83839C2.03722 8.90107 2.03722 8.93241 2.00588 8.9951C1.88051 9.30851 1.81782 9.49657 1.94319 9.7473C2.06856 10.0921 2.66405 10.3741 3.22821 10.1861C3.8237 9.99803 4.13712 9.7473 4.66993 9.3712C4.98335 9.12046 5.86092 8.83839 6.39373 8.74436C7.14593 8.65034 7.80411 8.74436 7.92948 9.12046C8.02351 9.46522 7.96082 9.7473 7.55338 10.1861C7.17728 10.5622 6.58178 10.9069 6.08031 11.001C5.98629 11.0637 5.9236 11.0637 5.86092 11.0637C5.76689 11.095 5.70421 11.1577 5.70421 11.2204C5.67287 11.3144 5.70421 11.3771 5.76689 11.4398C5.79824 11.4711 5.82958 11.4711 5.82958 11.4711C5.9236 11.5024 5.98629 11.5651 6.01763 11.6278L6.04897 11.6592C6.08031 11.6905 6.11165 11.7532 6.11165 11.8159C6.143 11.9099 6.08031 12.0039 5.98629 12.0666C5.95495 12.0979 5.89226 12.0979 5.86092 12.1293C4.7953 12.5054 4.5759 12.5681 4.5759 12.7875C4.5759 13.3203 5.86092 13.6023 6.48776 13.2889C7.36533 12.7875 7.67875 12.6934 7.74143 12.7561C7.8668 12.8188 7.96082 13.0068 7.92948 13.383C7.89814 13.7277 7.89814 13.8531 8.02351 13.9158C8.05485 13.9158 8.14887 13.9158 8.2429 13.8531C8.2429 13.8531 8.58766 13.6964 8.9951 13.2262C9.40255 12.8188 9.55925 12.3173 9.5906 11.7532C9.5906 11.0637 9.24584 10.0607 8.96376 9.46522C8.83839 9.18315 8.80705 9.08912 8.90108 8.90107C8.96376 8.80704 9.12047 8.74436 9.3712 8.86973L10.3115 9.33986C10.4995 9.43388 10.6562 9.59059 10.6562 9.80998C10.6876 9.87267 10.6562 9.90401 10.6249 9.96669L10.5935 9.99803C10.4055 10.6876 10.5309 11.5338 11.0323 12.286C11.7218 13.4456 13.0069 14.1978 14.0098 14.5739H14.0411C14.5113 14.7306 14.856 15.1381 14.8874 15.6396C14.8874 15.7336 14.8874 15.8276 14.8874 15.953L14.856 15.9843C14.8247 16.2037 14.7307 16.4231 14.6366 16.6112C14.2605 17.3007 14.0098 17.238 14.0098 17.238C13.8531 17.2693 13.7277 17.1753 13.7277 17.0186C13.7277 16.9873 13.7277 16.9873 13.7277 16.9246C13.7591 16.7992 13.7591 16.6738 13.7591 16.5485C13.7591 16.4231 13.6964 16.2664 13.665 16.1097C13.665 16.1097 13.665 16.0783 13.6337 16.047C13.6024 15.953 13.5397 15.859 13.4456 15.7649C13.1636 15.4202 12.7561 15.1694 12.2547 15.2008C11.8159 15.2321 11.4398 15.4829 11.189 15.8276C11.189 15.8276 11.189 15.8276 11.189 15.859C11.189 15.8903 11.1577 15.8903 11.1577 15.9216C10.9696 16.2351 10.907 16.6738 11.0637 17.1126C11.2831 18.0529 12.2233 18.6797 13.383 18.3976C14.762 18.0529 16.4545 15.8276 15.6082 13.5083ZM14.6993 13.5083C14.668 13.5397 14.6053 13.571 14.5426 13.6023C14.4486 13.6023 14.3546 13.571 14.1978 13.571C14.0411 13.5397 13.7904 13.4456 13.7904 13.4456C13.3203 13.2576 12.6621 13.0068 11.9099 12.38C11.3457 11.9099 11.001 11.1263 11.001 10.4368C11.001 10.3115 11.001 10.2488 11.0323 10.1547C11.0637 10.0607 11.1577 9.99803 11.2517 9.99803C11.3144 9.99803 11.3771 9.99803 11.4084 10.0294L11.4711 10.0607C11.5965 10.1234 12.6934 10.9696 13.1009 11.3457C13.571 11.8159 14.2292 12.5681 14.6053 13.0695C14.668 13.1009 14.668 13.1636 14.6993 13.2262C14.7933 13.2889 14.7933 13.4143 14.6993 13.5083Z" fill="white"/>
<path d="M146.68 18.3976C147.839 18.6797 148.78 18.0842 148.999 17.1126C149.124 16.6738 149.093 16.2351 148.905 15.9216C148.905 15.8903 148.874 15.859 148.874 15.859V15.8276C148.654 15.4829 148.247 15.2321 147.777 15.2008C147.307 15.1694 146.899 15.4202 146.617 15.7649C146.554 15.8276 146.492 15.953 146.429 16.047C146.429 16.0784 146.429 16.1097 146.429 16.1097C146.398 16.2664 146.335 16.3918 146.304 16.5485C146.304 16.6738 146.335 16.7992 146.366 16.9246C146.366 16.9559 146.398 16.9559 146.398 17.0186C146.366 17.1753 146.272 17.2693 146.116 17.238C146.116 17.238 145.865 17.3007 145.489 16.6112C145.395 16.4231 145.301 16.2037 145.269 15.9843V15.953C145.238 15.8276 145.238 15.7336 145.238 15.6396C145.269 15.1381 145.614 14.6993 146.084 14.5739H146.116C147.119 14.1978 148.404 13.477 149.093 12.286C149.563 11.5338 149.689 10.7189 149.5 9.99804L149.469 9.96669C149.469 9.90401 149.469 9.87267 149.469 9.80999C149.469 9.59059 149.595 9.46523 149.814 9.33986L150.754 8.86973C151.005 8.77571 151.13 8.83839 151.193 8.90107C151.287 9.05778 151.256 9.18315 151.13 9.46523C150.848 10.0607 150.503 11.0637 150.503 11.7532C150.566 12.286 150.691 12.7875 151.099 13.2262C151.538 13.6964 151.851 13.8531 151.851 13.8531C151.976 13.9158 152.039 13.9158 152.102 13.9158C152.227 13.8531 152.227 13.7277 152.196 13.383C152.165 12.9755 152.227 12.8188 152.384 12.7561C152.478 12.6934 152.76 12.7875 153.638 13.2889C154.296 13.6023 155.581 13.2889 155.581 12.7875C155.581 12.5994 155.361 12.5054 154.296 12.1293C154.264 12.0979 154.233 12.0979 154.17 12.0666C154.076 12.0353 154.014 11.9412 154.045 11.8159C154.045 11.7532 154.045 11.6905 154.108 11.6592V11.6278C154.17 11.5651 154.233 11.5024 154.327 11.4711C154.327 11.4711 154.358 11.4398 154.39 11.4398C154.453 11.3457 154.484 11.2831 154.452 11.2204C154.421 11.1577 154.39 11.095 154.264 11.0637C154.202 11.0637 154.139 11.0637 154.014 11.001C153.512 10.9069 152.917 10.5622 152.541 10.1861C152.133 9.77864 152.039 9.49657 152.165 9.12047C152.29 8.77571 152.948 8.65034 153.7 8.74436C154.233 8.83839 155.111 9.12047 155.424 9.3712C155.957 9.7473 156.27 9.99804 156.866 10.1861C157.399 10.3741 158.025 10.0921 158.151 9.7473C158.245 9.49657 158.182 9.30852 158.057 8.9951C158.025 8.93242 158.025 8.90107 158.025 8.83839C158.057 8.619 158.214 8.43095 158.433 8.46229C158.527 8.46229 158.59 8.52497 158.59 8.52497C158.621 8.52497 158.684 8.55631 158.715 8.58765C158.84 8.68168 159.028 8.80705 159.31 8.86973C159.373 8.90107 159.467 8.90107 159.467 8.90107C159.624 8.93241 159.812 8.86973 159.906 8.74436C160.094 8.52497 160 8.14887 159.687 7.89813C159.687 7.89813 159.499 7.74143 159.31 7.6474C158.934 7.42801 158.464 7.2713 157.994 7.2713C157.963 7.2713 157.931 7.2713 157.9 7.2713H157.869C157.712 7.23996 157.587 7.14593 157.493 7.02056C157.461 6.92654 157.461 6.83251 157.493 6.73849V6.70714C157.524 6.58178 157.618 6.42507 157.743 6.2997C157.9 6.14299 157.994 5.9236 157.9 5.73555C157.837 5.64152 157.743 5.5475 157.587 5.48481H157.555C157.211 5.35945 156.803 5.29676 156.396 5.29676C156.145 5.29676 155.894 5.3281 155.706 5.35945L155.675 5.39079C155.048 5.51616 154.672 5.98628 154.296 6.42507C153.888 6.8952 153.575 7.23996 153.167 7.52203C152.635 7.99216 152.133 8.18021 151.851 8.08618C151.444 7.96082 151.412 7.45935 151.569 7.05191C151.757 6.51909 152.227 6.17433 152.572 6.01763C152.635 5.95494 152.697 5.9236 152.729 5.89226L152.76 5.86092C152.76 5.86092 152.791 5.82957 152.791 5.76689C152.791 5.67286 152.635 5.57884 152.478 5.51616H152.447C152.259 5.48481 152.227 5.39079 152.227 5.26542C152.227 5.1714 152.227 5.14005 152.29 5.07737C152.321 5.01469 152.384 4.952 152.478 4.85798C152.509 4.85798 152.572 4.82664 152.635 4.79529C152.948 4.70127 153.544 4.5759 153.763 4.41919C154.045 4.23114 154.233 3.88638 154.014 3.54162C153.794 3.19686 153.324 3.32223 153.073 3.4476C152.854 3.57296 152.384 4.04309 152.165 4.29382C151.976 4.51322 151.82 4.51322 151.726 4.45053C151.6 4.41919 151.506 4.29382 151.444 4.13712V4.10577C151.412 4.04309 151.412 3.94906 151.412 3.85504C151.412 3.8237 151.412 3.79236 151.412 3.72967H151.444C151.475 3.4476 151.475 3.38491 151.412 3.32223C151.35 3.2282 151.193 3.2282 151.005 3.32223C150.347 3.54162 149.532 4.16846 149.218 5.04603C148.78 6.20568 149.657 7.23996 150.315 7.83545L150.347 7.86679V7.89813C150.378 7.96082 150.409 7.99216 150.409 8.08618C150.378 8.21155 150.347 8.30558 150.221 8.33692L149.626 8.619C149.532 8.68168 149.438 8.71302 149.344 8.71302C149.312 8.71302 149.312 8.71302 149.281 8.71302C149.156 8.71302 149.062 8.619 148.999 8.52497H148.968C148.874 8.36826 148.686 8.11753 148.686 8.11753C148.466 7.86679 148.121 7.55337 147.62 7.39667C146.962 7.17727 146.21 7.45935 145.99 7.99216C145.771 8.619 145.959 9.18315 146.335 9.68462C146.398 9.7473 146.46 9.77864 146.554 9.77864C146.68 9.77864 146.805 9.68462 146.805 9.52791C146.805 9.46523 146.805 9.3712 146.774 9.3712C146.46 8.9951 146.304 8.58765 146.46 8.18021C146.554 7.96082 146.93 7.71008 147.432 7.89813C147.808 8.0235 148.215 8.24289 148.435 8.58765C148.498 8.65034 148.498 8.71302 148.529 8.74436V8.77571C148.56 8.80705 148.56 8.86973 148.56 8.93241C148.56 9.05778 148.498 9.12047 148.435 9.18315C148.404 9.21449 148.341 9.24583 148.31 9.27717C146.993 9.99804 145.05 11.7218 144.454 13.3203C143.546 15.8276 145.269 18.0529 146.68 18.3976ZM145.269 13.1949C145.301 13.1322 145.301 13.1009 145.332 13.0382C145.708 12.5367 146.366 11.7845 146.836 11.3144C147.244 10.9383 148.341 10.0921 148.466 10.0294L148.529 9.99804C148.56 9.96669 148.623 9.96669 148.686 9.96669C148.78 9.96669 148.874 9.99804 148.905 10.1234C148.936 10.2174 148.936 10.2801 148.936 10.4055C148.936 11.095 148.592 11.8785 148.059 12.3487C147.338 12.9755 146.648 13.2262 146.178 13.4143C146.178 13.4143 145.928 13.5083 145.802 13.5397C145.677 13.571 145.551 13.571 145.457 13.571C145.395 13.5397 145.332 13.5397 145.301 13.477C145.207 13.4143 145.207 13.2889 145.269 13.1949Z" fill="white"/>
</g>
<defs>
<clipPath id="clip0_24_273">
<rect width="160" height="34.6954" fill="white"/>
</clipPath>
</defs>
</svg>
